<?xml version="1.0" encoding="utf-8" standalone="no"?>
<!DOCTYPE svg PUBLIC "-//W3C//DTD SVG 1.1//EN"
  "http://www.w3.org/Graphics/SVG/1.1/DTD/svg11.dtd">
<svg xmlns:xlink="http://www.w3.org/1999/xlink" width="324pt" height="324pt" viewBox="0 0 324 324" xmlns="http://www.w3.org/2000/svg" version="1.1">
 <metadata>
  <rdf:RDF xmlns:dc="http://purl.org/dc/elements/1.1/" xmlns:cc="http://creativecommons.org/ns#" xmlns:rdf="http://www.w3.org/1999/02/22-rdf-syntax-ns#">
   <cc:Work>
    <dc:type rdf:resource="http://purl.org/dc/dcmitype/StillImage"/>
    <dc:date>2025-08-01T01:34:47.064973</dc:date>
    <dc:format>image/svg+xml</dc:format>
    <dc:creator>
     <cc:Agent>
      <dc:title>Matplotlib v3.5.1, https://matplotlib.org/</dc:title>
     </cc:Agent>
    </dc:creator>
   </cc:Work>
  </rdf:RDF>
 </metadata>
 <defs>
  <style type="text/css">*{stroke-linejoin: round; stroke-linecap: butt}</style>
 </defs>
 <g id="figure_1">
  <g id="patch_1">
   <path d="M 0 324 
L 324 324 
L 324 0 
L 0 0 
z
" style="fill: #ffffff"/>
  </g>
  <g id="axes_1">
   <g id="patch_2">
    <path d="M 48.6 275.4 
L 250.902439 275.4 
L 250.902439 73.097561 
L 48.6 73.097561 
z
" style="fill: #ffffff"/>
   </g>
   <g id="PathCollection_1">
    <defs>
     <path id="m15e42d53c7" d="M 0 3 
C 0.795609 3 1.55874 2.683901 2.12132 2.12132 
C 2.683901 1.55874 3 0.795609 3 0 
C 3 -0.795609 2.683901 -1.55874 2.12132 -2.12132 
C 1.55874 -2.683901 0.795609 -3 0 -3 
C -0.795609 -3 -1.55874 -2.683901 -2.12132 -2.12132 
C -2.683901 -1.55874 -3 -0.795609 -3 0 
C -3 0.795609 -2.683901 1.55874 -2.12132 2.12132 
C -1.55874 2.683901 -0.795609 3 0 3 
z
" style="stroke: #000000"/>
    </defs>
    <g clip-path="url(#p7f7766a619)">
     <use xlink:href="#m15e42d53c7" x="189.499793" y="151.259867" style="stroke: #000000"/>
     <use xlink:href="#m15e42d53c7" x="225.374712" y="151.259867" style="stroke: #000000"/>
     <use xlink:href="#m15e42d53c7" x="163.186865" y="266.204435" style="stroke: #000000"/>
     <use xlink:href="#m15e42d53c7" x="76.710163" y="192.639911" style="stroke: #000000"/>
     <use xlink:href="#m15e42d53c7" x="203.807883" y="151.259867" style="stroke: #000000"/>
     <use xlink:href="#m15e42d53c7" x="221.396365" y="82.293126" style="stroke: #000000"/>
     <use xlink:href="#m15e42d53c7" x="227.538374" y="121.702692" style="stroke: #000000"/>
     <use xlink:href="#m15e42d53c7" x="222.582889" y="121.702692" style="stroke: #000000"/>
     <use xlink:href="#m15e42d53c7" x="199.271171" y="151.259867" style="stroke: #000000"/>
     <use xlink:href="#m15e42d53c7" x="164.233799" y="192.639911" style="stroke: #000000"/>
     <use xlink:href="#m15e42d53c7" x="208.344595" y="192.639911" style="stroke: #000000"/>
     <use xlink:href="#m15e42d53c7" x="182.93901" y="151.259867" style="stroke: #000000"/>
     <use xlink:href="#m15e42d53c7" x="176.378227" y="109.879823" style="stroke: #000000"/>
     <use xlink:href="#m15e42d53c7" x="206.948683" y="174.24878" style="stroke: #000000"/>
     <use xlink:href="#m15e42d53c7" x="205.482976" y="151.259867" style="stroke: #000000"/>
     <use xlink:href="#m15e42d53c7" x="192.012433" y="192.639911" style="stroke: #000000"/>
     <use xlink:href="#m15e42d53c7" x="220.698409" y="109.879823" style="stroke: #000000"/>
     <use xlink:href="#m15e42d53c7" x="113.980994" y="220.226608" style="stroke: #000000"/>
     <use xlink:href="#m15e42d53c7" x="198.084647" y="220.226608" style="stroke: #000000"/>
     <use xlink:href="#m15e42d53c7" x="197.386691" y="199.006072" style="stroke: #000000"/>
     <use xlink:href="#m15e42d53c7" x="198.084647" y="174.24878" style="stroke: #000000"/>
     <use xlink:href="#m15e42d53c7" x="156.207309" y="151.259867" style="stroke: #000000"/>
     <use xlink:href="#m15e42d53c7" x="177.42516" y="192.639911" style="stroke: #000000"/>
     <use xlink:href="#m15e42d53c7" x="228.166534" y="151.259867" style="stroke: #000000"/>
     <use xlink:href="#m15e42d53c7" x="196.060575" y="239.931391" style="stroke: #000000"/>
     <use xlink:href="#m15e42d53c7" x="175.959453" y="121.702692" style="stroke: #000000"/>
     <use xlink:href="#m15e42d53c7" x="75.66323" y="174.24878" style="stroke: #000000"/>
     <use xlink:href="#m15e42d53c7" x="195.781393" y="109.879823" style="stroke: #000000"/>
     <use xlink:href="#m15e42d53c7" x="57.795565" y="192.639911" style="stroke: #000000"/>
     <use xlink:href="#m15e42d53c7" x="131.918453" y="82.293126" style="stroke: #000000"/>
     <use xlink:href="#m15e42d53c7" x="241.706874" y="121.702692" style="stroke: #000000"/>
     <use xlink:href="#m15e42d53c7" x="222.931867" y="109.879823" style="stroke: #000000"/>
    </g>
   </g>
   <g id="matplotlib.axis_1">
    <g id="xtick_1">
     <g id="line2d_1">
      <defs>
       <path id="m185813815c" d="M 0 0 
L 0 3.5 
" style="stroke: #000000; stroke-width: 0.8"/>
      </defs>
      <g>
       <use xlink:href="#m185813815c" x="72.66202" y="275.4" style="stroke: #000000; stroke-width: 0.8"/>
      </g>
     </g>
     <g id="text_1">
      <!-- 75 -->
      <g transform="translate(66.29952 289.998438)scale(0.1 -0.1)">
       <defs>
        <path id="DejaVuSans-37" d="M 525 4666 
L 3525 4666 
L 3525 4397 
L 1831 0 
L 1172 0 
L 2766 4134 
L 525 4134 
L 525 4666 
z
" transform="scale(0.015625)"/>
        <path id="DejaVuSans-35" d="M 691 4666 
L 3169 4666 
L 3169 4134 
L 1269 4134 
L 1269 2991 
Q 1406 3038 1543 3061 
Q 1681 3084 1819 3084 
Q 2600 3084 3056 2656 
Q 3513 2228 3513 1497 
Q 3513 744 3044 326 
Q 2575 -91 1722 -91 
Q 1428 -91 1123 -41 
Q 819 9 494 109 
L 494 744 
Q 775 591 1075 516 
Q 1375 441 1709 441 
Q 2250 441 2565 725 
Q 2881 1009 2881 1497 
Q 2881 1984 2565 2268 
Q 2250 2553 1709 2553 
Q 1456 2553 1204 2497 
Q 953 2441 691 2322 
L 691 4666 
z
" transform="scale(0.015625)"/>
       </defs>
       <use xlink:href="#DejaVuSans-37"/>
       <use xlink:href="#DejaVuSans-35" x="63.623047"/>
      </g>
     </g>
    </g>
    <g id="xtick_2">
     <g id="line2d_2">
      <g>
       <use xlink:href="#m185813815c" x="107.559802" y="275.4" style="stroke: #000000; stroke-width: 0.8"/>
      </g>
     </g>
     <g id="text_2">
      <!-- 80 -->
      <g transform="translate(101.197302 289.998438)scale(0.1 -0.1)">
       <defs>
        <path id="DejaVuSans-38" d="M 2034 2216 
Q 1584 2216 1326 1975 
Q 1069 1734 1069 1313 
Q 1069 891 1326 650 
Q 1584 409 2034 409 
Q 2484 409 2743 651 
Q 3003 894 3003 1313 
Q 3003 1734 2745 1975 
Q 2488 2216 2034 2216 
z
M 1403 2484 
Q 997 2584 770 2862 
Q 544 3141 544 3541 
Q 544 4100 942 4425 
Q 1341 4750 2034 4750 
Q 2731 4750 3128 4425 
Q 3525 4100 3525 3541 
Q 3525 3141 3298 2862 
Q 3072 2584 2669 2484 
Q 3125 2378 3379 2068 
Q 3634 1759 3634 1313 
Q 3634 634 3220 271 
Q 2806 -91 2034 -91 
Q 1263 -91 848 271 
Q 434 634 434 1313 
Q 434 1759 690 2068 
Q 947 2378 1403 2484 
z
M 1172 3481 
Q 1172 3119 1398 2916 
Q 1625 2713 2034 2713 
Q 2441 2713 2670 2916 
Q 2900 3119 2900 3481 
Q 2900 3844 2670 4047 
Q 2441 4250 2034 4250 
Q 1625 4250 1398 4047 
Q 1172 3844 1172 3481 
z
" transform="scale(0.015625)"/>
        <path id="DejaVuSans-30" d="M 2034 4250 
Q 1547 4250 1301 3770 
Q 1056 3291 1056 2328 
Q 1056 1369 1301 889 
Q 1547 409 2034 409 
Q 2525 409 2770 889 
Q 3016 1369 3016 2328 
Q 3016 3291 2770 3770 
Q 2525 4250 2034 4250 
z
M 2034 4750 
Q 2819 4750 3233 4129 
Q 3647 3509 3647 2328 
Q 3647 1150 3233 529 
Q 2819 -91 2034 -91 
Q 1250 -91 836 529 
Q 422 1150 422 2328 
Q 422 3509 836 4129 
Q 1250 4750 2034 4750 
z
" transform="scale(0.015625)"/>
       </defs>
       <use xlink:href="#DejaVuSans-38"/>
       <use xlink:href="#DejaVuSans-30" x="63.623047"/>
      </g>
     </g>
    </g>
    <g id="xtick_3">
     <g id="line2d_3">
      <g>
       <use xlink:href="#m185813815c" x="142.457583" y="275.4" style="stroke: #000000; stroke-width: 0.8"/>
      </g>
     </g>
     <g id="text_3">
      <!-- 85 -->
      <g transform="translate(136.095083 289.998438)scale(0.1 -0.1)">
       <use xlink:href="#DejaVuSans-38"/>
       <use xlink:href="#DejaVuSans-35" x="63.623047"/>
      </g>
     </g>
    </g>
    <g id="xtick_4">
     <g id="line2d_4">
      <g>
       <use xlink:href="#m185813815c" x="177.355365" y="275.4" style="stroke: #000000; stroke-width: 0.8"/>
      </g>
     </g>
     <g id="text_4">
      <!-- 90 -->
      <g transform="translate(170.992865 289.998438)scale(0.1 -0.1)">
       <defs>
        <path id="DejaVuSans-39" d="M 703 97 
L 703 672 
Q 941 559 1184 500 
Q 1428 441 1663 441 
Q 2288 441 2617 861 
Q 2947 1281 2994 2138 
Q 2813 1869 2534 1725 
Q 2256 1581 1919 1581 
Q 1219 1581 811 2004 
Q 403 2428 403 3163 
Q 403 3881 828 4315 
Q 1253 4750 1959 4750 
Q 2769 4750 3195 4129 
Q 3622 3509 3622 2328 
Q 3622 1225 3098 567 
Q 2575 -91 1691 -91 
Q 1453 -91 1209 -44 
Q 966 3 703 97 
z
M 1959 2075 
Q 2384 2075 2632 2365 
Q 2881 2656 2881 3163 
Q 2881 3666 2632 3958 
Q 2384 4250 1959 4250 
Q 1534 4250 1286 3958 
Q 1038 3666 1038 3163 
Q 1038 2656 1286 2365 
Q 1534 2075 1959 2075 
z
" transform="scale(0.015625)"/>
       </defs>
       <use xlink:href="#DejaVuSans-39"/>
       <use xlink:href="#DejaVuSans-30" x="63.623047"/>
      </g>
     </g>
    </g>
    <g id="xtick_5">
     <g id="line2d_5">
      <g>
       <use xlink:href="#m185813815c" x="212.253146" y="275.4" style="stroke: #000000; stroke-width: 0.8"/>
      </g>
     </g>
     <g id="text_5">
      <!-- 95 -->
      <g transform="translate(205.890646 289.998438)scale(0.1 -0.1)">
       <use xlink:href="#DejaVuSans-39"/>
       <use xlink:href="#DejaVuSans-35" x="63.623047"/>
      </g>
     </g>
    </g>
    <g id="xtick_6">
     <g id="line2d_6">
      <g>
       <use xlink:href="#m185813815c" x="247.150928" y="275.4" style="stroke: #000000; stroke-width: 0.8"/>
      </g>
     </g>
     <g id="text_6">
      <!-- 100 -->
      <g transform="translate(237.607178 289.998438)scale(0.1 -0.1)">
       <defs>
        <path id="DejaVuSans-31" d="M 794 531 
L 1825 531 
L 1825 4091 
L 703 3866 
L 703 4441 
L 1819 4666 
L 2450 4666 
L 2450 531 
L 3481 531 
L 3481 0 
L 794 0 
L 794 531 
z
" transform="scale(0.015625)"/>
       </defs>
       <use xlink:href="#DejaVuSans-31"/>
       <use xlink:href="#DejaVuSans-30" x="63.623047"/>
       <use xlink:href="#DejaVuSans-30" x="127.246094"/>
      </g>
     </g>
    </g>
    <g id="text_7">
     <!-- Genome completeness, % -->
     <g transform="translate(84.297313 303.676563)scale(0.1 -0.1)">
      <defs>
       <path id="DejaVuSans-47" d="M 3809 666 
L 3809 1919 
L 2778 1919 
L 2778 2438 
L 4434 2438 
L 4434 434 
Q 4069 175 3628 42 
Q 3188 -91 2688 -91 
Q 1594 -91 976 548 
Q 359 1188 359 2328 
Q 359 3472 976 4111 
Q 1594 4750 2688 4750 
Q 3144 4750 3555 4637 
Q 3966 4525 4313 4306 
L 4313 3634 
Q 3963 3931 3569 4081 
Q 3175 4231 2741 4231 
Q 1884 4231 1454 3753 
Q 1025 3275 1025 2328 
Q 1025 1384 1454 906 
Q 1884 428 2741 428 
Q 3075 428 3337 486 
Q 3600 544 3809 666 
z
" transform="scale(0.015625)"/>
       <path id="DejaVuSans-65" d="M 3597 1894 
L 3597 1613 
L 953 1613 
Q 991 1019 1311 708 
Q 1631 397 2203 397 
Q 2534 397 2845 478 
Q 3156 559 3463 722 
L 3463 178 
Q 3153 47 2828 -22 
Q 2503 -91 2169 -91 
Q 1331 -91 842 396 
Q 353 884 353 1716 
Q 353 2575 817 3079 
Q 1281 3584 2069 3584 
Q 2775 3584 3186 3129 
Q 3597 2675 3597 1894 
z
M 3022 2063 
Q 3016 2534 2758 2815 
Q 2500 3097 2075 3097 
Q 1594 3097 1305 2825 
Q 1016 2553 972 2059 
L 3022 2063 
z
" transform="scale(0.015625)"/>
       <path id="DejaVuSans-6e" d="M 3513 2113 
L 3513 0 
L 2938 0 
L 2938 2094 
Q 2938 2591 2744 2837 
Q 2550 3084 2163 3084 
Q 1697 3084 1428 2787 
Q 1159 2491 1159 1978 
L 1159 0 
L 581 0 
L 581 3500 
L 1159 3500 
L 1159 2956 
Q 1366 3272 1645 3428 
Q 1925 3584 2291 3584 
Q 2894 3584 3203 3211 
Q 3513 2838 3513 2113 
z
" transform="scale(0.015625)"/>
       <path id="DejaVuSans-6f" d="M 1959 3097 
Q 1497 3097 1228 2736 
Q 959 2375 959 1747 
Q 959 1119 1226 758 
Q 1494 397 1959 397 
Q 2419 397 2687 759 
Q 2956 1122 2956 1747 
Q 2956 2369 2687 2733 
Q 2419 3097 1959 3097 
z
M 1959 3584 
Q 2709 3584 3137 3096 
Q 3566 2609 3566 1747 
Q 3566 888 3137 398 
Q 2709 -91 1959 -91 
Q 1206 -91 779 398 
Q 353 888 353 1747 
Q 353 2609 779 3096 
Q 1206 3584 1959 3584 
z
" transform="scale(0.015625)"/>
       <path id="DejaVuSans-6d" d="M 3328 2828 
Q 3544 3216 3844 3400 
Q 4144 3584 4550 3584 
Q 5097 3584 5394 3201 
Q 5691 2819 5691 2113 
L 5691 0 
L 5113 0 
L 5113 2094 
Q 5113 2597 4934 2840 
Q 4756 3084 4391 3084 
Q 3944 3084 3684 2787 
Q 3425 2491 3425 1978 
L 3425 0 
L 2847 0 
L 2847 2094 
Q 2847 2600 2669 2842 
Q 2491 3084 2119 3084 
Q 1678 3084 1418 2786 
Q 1159 2488 1159 1978 
L 1159 0 
L 581 0 
L 581 3500 
L 1159 3500 
L 1159 2956 
Q 1356 3278 1631 3431 
Q 1906 3584 2284 3584 
Q 2666 3584 2933 3390 
Q 3200 3197 3328 2828 
z
" transform="scale(0.015625)"/>
       <path id="DejaVuSans-20" transform="scale(0.015625)"/>
       <path id="DejaVuSans-63" d="M 3122 3366 
L 3122 2828 
Q 2878 2963 2633 3030 
Q 2388 3097 2138 3097 
Q 1578 3097 1268 2742 
Q 959 2388 959 1747 
Q 959 1106 1268 751 
Q 1578 397 2138 397 
Q 2388 397 2633 464 
Q 2878 531 3122 666 
L 3122 134 
Q 2881 22 2623 -34 
Q 2366 -91 2075 -91 
Q 1284 -91 818 406 
Q 353 903 353 1747 
Q 353 2603 823 3093 
Q 1294 3584 2113 3584 
Q 2378 3584 2631 3529 
Q 2884 3475 3122 3366 
z
" transform="scale(0.015625)"/>
       <path id="DejaVuSans-70" d="M 1159 525 
L 1159 -1331 
L 581 -1331 
L 581 3500 
L 1159 3500 
L 1159 2969 
Q 1341 3281 1617 3432 
Q 1894 3584 2278 3584 
Q 2916 3584 3314 3078 
Q 3713 2572 3713 1747 
Q 3713 922 3314 415 
Q 2916 -91 2278 -91 
Q 1894 -91 1617 61 
Q 1341 213 1159 525 
z
M 3116 1747 
Q 3116 2381 2855 2742 
Q 2594 3103 2138 3103 
Q 1681 3103 1420 2742 
Q 1159 2381 1159 1747 
Q 1159 1113 1420 752 
Q 1681 391 2138 391 
Q 2594 391 2855 752 
Q 3116 1113 3116 1747 
z
" transform="scale(0.015625)"/>
       <path id="DejaVuSans-6c" d="M 603 4863 
L 1178 4863 
L 1178 0 
L 603 0 
L 603 4863 
z
" transform="scale(0.015625)"/>
       <path id="DejaVuSans-74" d="M 1172 4494 
L 1172 3500 
L 2356 3500 
L 2356 3053 
L 1172 3053 
L 1172 1153 
Q 1172 725 1289 603 
Q 1406 481 1766 481 
L 2356 481 
L 2356 0 
L 1766 0 
Q 1100 0 847 248 
Q 594 497 594 1153 
L 594 3053 
L 172 3053 
L 172 3500 
L 594 3500 
L 594 4494 
L 1172 4494 
z
" transform="scale(0.015625)"/>
       <path id="DejaVuSans-73" d="M 2834 3397 
L 2834 2853 
Q 2591 2978 2328 3040 
Q 2066 3103 1784 3103 
Q 1356 3103 1142 2972 
Q 928 2841 928 2578 
Q 928 2378 1081 2264 
Q 1234 2150 1697 2047 
L 1894 2003 
Q 2506 1872 2764 1633 
Q 3022 1394 3022 966 
Q 3022 478 2636 193 
Q 2250 -91 1575 -91 
Q 1294 -91 989 -36 
Q 684 19 347 128 
L 347 722 
Q 666 556 975 473 
Q 1284 391 1588 391 
Q 1994 391 2212 530 
Q 2431 669 2431 922 
Q 2431 1156 2273 1281 
Q 2116 1406 1581 1522 
L 1381 1569 
Q 847 1681 609 1914 
Q 372 2147 372 2553 
Q 372 3047 722 3315 
Q 1072 3584 1716 3584 
Q 2034 3584 2315 3537 
Q 2597 3491 2834 3397 
z
" transform="scale(0.015625)"/>
       <path id="DejaVuSans-2c" d="M 750 794 
L 1409 794 
L 1409 256 
L 897 -744 
L 494 -744 
L 750 256 
L 750 794 
z
" transform="scale(0.015625)"/>
       <path id="DejaVuSans-25" d="M 4653 2053 
Q 4381 2053 4226 1822 
Q 4072 1591 4072 1178 
Q 4072 772 4226 539 
Q 4381 306 4653 306 
Q 4919 306 5073 539 
Q 5228 772 5228 1178 
Q 5228 1588 5073 1820 
Q 4919 2053 4653 2053 
z
M 4653 2450 
Q 5147 2450 5437 2106 
Q 5728 1763 5728 1178 
Q 5728 594 5436 251 
Q 5144 -91 4653 -91 
Q 4153 -91 3862 251 
Q 3572 594 3572 1178 
Q 3572 1766 3864 2108 
Q 4156 2450 4653 2450 
z
M 1428 4353 
Q 1159 4353 1004 4120 
Q 850 3888 850 3481 
Q 850 3069 1003 2837 
Q 1156 2606 1428 2606 
Q 1700 2606 1854 2837 
Q 2009 3069 2009 3481 
Q 2009 3884 1853 4118 
Q 1697 4353 1428 4353 
z
M 4250 4750 
L 4750 4750 
L 1831 -91 
L 1331 -91 
L 4250 4750 
z
M 1428 4750 
Q 1922 4750 2215 4408 
Q 2509 4066 2509 3481 
Q 2509 2891 2217 2550 
Q 1925 2209 1428 2209 
Q 931 2209 642 2551 
Q 353 2894 353 3481 
Q 353 4063 643 4406 
Q 934 4750 1428 4750 
z
" transform="scale(0.015625)"/>
      </defs>
      <use xlink:href="#DejaVuSans-47"/>
      <use xlink:href="#DejaVuSans-65" x="77.490234"/>
      <use xlink:href="#DejaVuSans-6e" x="139.013672"/>
      <use xlink:href="#DejaVuSans-6f" x="202.392578"/>
      <use xlink:href="#DejaVuSans-6d" x="263.574219"/>
      <use xlink:href="#DejaVuSans-65" x="360.986328"/>
      <use xlink:href="#DejaVuSans-20" x="422.509766"/>
      <use xlink:href="#DejaVuSans-63" x="454.296875"/>
      <use xlink:href="#DejaVuSans-6f" x="509.277344"/>
      <use xlink:href="#DejaVuSans-6d" x="570.458984"/>
      <use xlink:href="#DejaVuSans-70" x="667.871094"/>
      <use xlink:href="#DejaVuSans-6c" x="731.347656"/>
      <use xlink:href="#DejaVuSans-65" x="759.130859"/>
      <use xlink:href="#DejaVuSans-74" x="820.654297"/>
      <use xlink:href="#DejaVuSans-65" x="859.863281"/>
      <use xlink:href="#DejaVuSans-6e" x="921.386719"/>
      <use xlink:href="#DejaVuSans-65" x="984.765625"/>
      <use xlink:href="#DejaVuSans-73" x="1046.289062"/>
      <use xlink:href="#DejaVuSans-73" x="1098.388672"/>
      <use xlink:href="#DejaVuSans-2c" x="1150.488281"/>
      <use xlink:href="#DejaVuSans-20" x="1182.275391"/>
      <use xlink:href="#DejaVuSans-25" x="1214.0625"/>
     </g>
    </g>
   </g>
   <g id="matplotlib.axis_2">
    <g id="ytick_1">
     <g id="line2d_7">
      <defs>
       <path id="me21005f7ff" d="M 0 0 
L -3.5 0 
" style="stroke: #000000; stroke-width: 0.8"/>
      </defs>
      <g>
       <use xlink:href="#me21005f7ff" x="48.6" y="275.4" style="stroke: #000000; stroke-width: 0.8"/>
      </g>
     </g>
     <g id="text_8">
      <!-- 0.10 -->
      <g transform="translate(19.334375 279.199219)scale(0.1 -0.1)">
       <defs>
        <path id="DejaVuSans-2e" d="M 684 794 
L 1344 794 
L 1344 0 
L 684 0 
L 684 794 
z
" transform="scale(0.015625)"/>
       </defs>
       <use xlink:href="#DejaVuSans-30"/>
       <use xlink:href="#DejaVuSans-2e" x="63.623047"/>
       <use xlink:href="#DejaVuSans-31" x="95.410156"/>
       <use xlink:href="#DejaVuSans-30" x="159.033203"/>
      </g>
     </g>
    </g>
    <g id="ytick_2">
     <g id="line2d_8">
      <g>
       <use xlink:href="#me21005f7ff" x="48.6" y="234.019956" style="stroke: #000000; stroke-width: 0.8"/>
      </g>
     </g>
     <g id="text_9">
      <!-- 0.15 -->
      <g transform="translate(19.334375 237.819174)scale(0.1 -0.1)">
       <use xlink:href="#DejaVuSans-30"/>
       <use xlink:href="#DejaVuSans-2e" x="63.623047"/>
       <use xlink:href="#DejaVuSans-31" x="95.410156"/>
       <use xlink:href="#DejaVuSans-35" x="159.033203"/>
      </g>
     </g>
    </g>
    <g id="ytick_3">
     <g id="line2d_9">
      <g>
       <use xlink:href="#me21005f7ff" x="48.6" y="192.639911" style="stroke: #000000; stroke-width: 0.8"/>
      </g>
     </g>
     <g id="text_10">
      <!-- 0.20 -->
      <g transform="translate(19.334375 196.43913)scale(0.1 -0.1)">
       <defs>
        <path id="DejaVuSans-32" d="M 1228 531 
L 3431 531 
L 3431 0 
L 469 0 
L 469 531 
Q 828 903 1448 1529 
Q 2069 2156 2228 2338 
Q 2531 2678 2651 2914 
Q 2772 3150 2772 3378 
Q 2772 3750 2511 3984 
Q 2250 4219 1831 4219 
Q 1534 4219 1204 4116 
Q 875 4013 500 3803 
L 500 4441 
Q 881 4594 1212 4672 
Q 1544 4750 1819 4750 
Q 2544 4750 2975 4387 
Q 3406 4025 3406 3419 
Q 3406 3131 3298 2873 
Q 3191 2616 2906 2266 
Q 2828 2175 2409 1742 
Q 1991 1309 1228 531 
z
" transform="scale(0.015625)"/>
       </defs>
       <use xlink:href="#DejaVuSans-30"/>
       <use xlink:href="#DejaVuSans-2e" x="63.623047"/>
       <use xlink:href="#DejaVuSans-32" x="95.410156"/>
       <use xlink:href="#DejaVuSans-30" x="159.033203"/>
      </g>
     </g>
    </g>
    <g id="ytick_4">
     <g id="line2d_10">
      <g>
       <use xlink:href="#me21005f7ff" x="48.6" y="151.259867" style="stroke: #000000; stroke-width: 0.8"/>
      </g>
     </g>
     <g id="text_11">
      <!-- 0.25 -->
      <g transform="translate(19.334375 155.059086)scale(0.1 -0.1)">
       <use xlink:href="#DejaVuSans-30"/>
       <use xlink:href="#DejaVuSans-2e" x="63.623047"/>
       <use xlink:href="#DejaVuSans-32" x="95.410156"/>
       <use xlink:href="#DejaVuSans-35" x="159.033203"/>
      </g>
     </g>
    </g>
    <g id="ytick_5">
     <g id="line2d_11">
      <g>
       <use xlink:href="#me21005f7ff" x="48.6" y="109.879823" style="stroke: #000000; stroke-width: 0.8"/>
      </g>
     </g>
     <g id="text_12">
      <!-- 0.30 -->
      <g transform="translate(19.334375 113.679041)scale(0.1 -0.1)">
       <defs>
        <path id="DejaVuSans-33" d="M 2597 2516 
Q 3050 2419 3304 2112 
Q 3559 1806 3559 1356 
Q 3559 666 3084 287 
Q 2609 -91 1734 -91 
Q 1441 -91 1130 -33 
Q 819 25 488 141 
L 488 750 
Q 750 597 1062 519 
Q 1375 441 1716 441 
Q 2309 441 2620 675 
Q 2931 909 2931 1356 
Q 2931 1769 2642 2001 
Q 2353 2234 1838 2234 
L 1294 2234 
L 1294 2753 
L 1863 2753 
Q 2328 2753 2575 2939 
Q 2822 3125 2822 3475 
Q 2822 3834 2567 4026 
Q 2313 4219 1838 4219 
Q 1578 4219 1281 4162 
Q 984 4106 628 3988 
L 628 4550 
Q 988 4650 1302 4700 
Q 1616 4750 1894 4750 
Q 2613 4750 3031 4423 
Q 3450 4097 3450 3541 
Q 3450 3153 3228 2886 
Q 3006 2619 2597 2516 
z
" transform="scale(0.015625)"/>
       </defs>
       <use xlink:href="#DejaVuSans-30"/>
       <use xlink:href="#DejaVuSans-2e" x="63.623047"/>
       <use xlink:href="#DejaVuSans-33" x="95.410156"/>
       <use xlink:href="#DejaVuSans-30" x="159.033203"/>
      </g>
     </g>
    </g>
    <g id="text_13">
     <!-- Median module completeness, % -->
     <g transform="translate(13.254687 257.090968)rotate(-90)scale(0.1 -0.1)">
      <defs>
       <path id="DejaVuSans-4d" d="M 628 4666 
L 1569 4666 
L 2759 1491 
L 3956 4666 
L 4897 4666 
L 4897 0 
L 4281 0 
L 4281 4097 
L 3078 897 
L 2444 897 
L 1241 4097 
L 1241 0 
L 628 0 
L 628 4666 
z
" transform="scale(0.015625)"/>
       <path id="DejaVuSans-64" d="M 2906 2969 
L 2906 4863 
L 3481 4863 
L 3481 0 
L 2906 0 
L 2906 525 
Q 2725 213 2448 61 
Q 2172 -91 1784 -91 
Q 1150 -91 751 415 
Q 353 922 353 1747 
Q 353 2572 751 3078 
Q 1150 3584 1784 3584 
Q 2172 3584 2448 3432 
Q 2725 3281 2906 2969 
z
M 947 1747 
Q 947 1113 1208 752 
Q 1469 391 1925 391 
Q 2381 391 2643 752 
Q 2906 1113 2906 1747 
Q 2906 2381 2643 2742 
Q 2381 3103 1925 3103 
Q 1469 3103 1208 2742 
Q 947 2381 947 1747 
z
" transform="scale(0.015625)"/>
       <path id="DejaVuSans-69" d="M 603 3500 
L 1178 3500 
L 1178 0 
L 603 0 
L 603 3500 
z
M 603 4863 
L 1178 4863 
L 1178 4134 
L 603 4134 
L 603 4863 
z
" transform="scale(0.015625)"/>
       <path id="DejaVuSans-61" d="M 2194 1759 
Q 1497 1759 1228 1600 
Q 959 1441 959 1056 
Q 959 750 1161 570 
Q 1363 391 1709 391 
Q 2188 391 2477 730 
Q 2766 1069 2766 1631 
L 2766 1759 
L 2194 1759 
z
M 3341 1997 
L 3341 0 
L 2766 0 
L 2766 531 
Q 2569 213 2275 61 
Q 1981 -91 1556 -91 
Q 1019 -91 701 211 
Q 384 513 384 1019 
Q 384 1609 779 1909 
Q 1175 2209 1959 2209 
L 2766 2209 
L 2766 2266 
Q 2766 2663 2505 2880 
Q 2244 3097 1772 3097 
Q 1472 3097 1187 3025 
Q 903 2953 641 2809 
L 641 3341 
Q 956 3463 1253 3523 
Q 1550 3584 1831 3584 
Q 2591 3584 2966 3190 
Q 3341 2797 3341 1997 
z
" transform="scale(0.015625)"/>
       <path id="DejaVuSans-75" d="M 544 1381 
L 544 3500 
L 1119 3500 
L 1119 1403 
Q 1119 906 1312 657 
Q 1506 409 1894 409 
Q 2359 409 2629 706 
Q 2900 1003 2900 1516 
L 2900 3500 
L 3475 3500 
L 3475 0 
L 2900 0 
L 2900 538 
Q 2691 219 2414 64 
Q 2138 -91 1772 -91 
Q 1169 -91 856 284 
Q 544 659 544 1381 
z
M 1991 3584 
L 1991 3584 
z
" transform="scale(0.015625)"/>
      </defs>
      <use xlink:href="#DejaVuSans-4d"/>
      <use xlink:href="#DejaVuSans-65" x="86.279297"/>
      <use xlink:href="#DejaVuSans-64" x="147.802734"/>
      <use xlink:href="#DejaVuSans-69" x="211.279297"/>
      <use xlink:href="#DejaVuSans-61" x="239.0625"/>
      <use xlink:href="#DejaVuSans-6e" x="300.341797"/>
      <use xlink:href="#DejaVuSans-20" x="363.720703"/>
      <use xlink:href="#DejaVuSans-6d" x="395.507812"/>
      <use xlink:href="#DejaVuSans-6f" x="492.919922"/>
      <use xlink:href="#DejaVuSans-64" x="554.101562"/>
      <use xlink:href="#DejaVuSans-75" x="617.578125"/>
      <use xlink:href="#DejaVuSans-6c" x="680.957031"/>
      <use xlink:href="#DejaVuSans-65" x="708.740234"/>
      <use xlink:href="#DejaVuSans-20" x="770.263672"/>
      <use xlink:href="#DejaVuSans-63" x="802.050781"/>
      <use xlink:href="#DejaVuSans-6f" x="857.03125"/>
      <use xlink:href="#DejaVuSans-6d" x="918.212891"/>
      <use xlink:href="#DejaVuSans-70" x="1015.625"/>
      <use xlink:href="#DejaVuSans-6c" x="1079.101562"/>
      <use xlink:href="#DejaVuSans-65" x="1106.884766"/>
      <use xlink:href="#DejaVuSans-74" x="1168.408203"/>
      <use xlink:href="#DejaVuSans-65" x="1207.617188"/>
      <use xlink:href="#DejaVuSans-6e" x="1269.140625"/>
      <use xlink:href="#DejaVuSans-65" x="1332.519531"/>
      <use xlink:href="#DejaVuSans-73" x="1394.042969"/>
      <use xlink:href="#DejaVuSans-73" x="1446.142578"/>
      <use xlink:href="#DejaVuSans-2c" x="1498.242188"/>
      <use xlink:href="#DejaVuSans-20" x="1530.029297"/>
      <use xlink:href="#DejaVuSans-25" x="1561.816406"/>
     </g>
    </g>
   </g>
   <g id="patch_3">
    <path d="M 48.6 275.4 
L 48.6 73.097561 
" style="fill: none; stroke: #000000; stroke-width: 0.8; stroke-linejoin: miter; stroke-linecap: square"/>
   </g>
   <g id="patch_4">
    <path d="M 48.6 275.4 
L 250.902439 275.4 
" style="fill: none; stroke: #000000; stroke-width: 0.8; stroke-linejoin: miter; stroke-linecap: square"/>
   </g>
   <g id="PathCollection_2">
    <defs>
     <path id="m31561b3784" d="M 0 5 
C 1.326016 5 2.597899 4.473168 3.535534 3.535534 
C 4.473168 2.597899 5 1.326016 5 0 
C 5 -1.326016 4.473168 -2.597899 3.535534 -3.535534 
C 2.597899 -4.473168 1.326016 -5 0 -5 
C -1.326016 -5 -2.597899 -4.473168 -3.535534 -3.535534 
C -4.473168 -2.597899 -5 -1.326016 -5 0 
C -5 1.326016 -4.473168 2.597899 -3.535534 3.535534 
C -2.597899 4.473168 -1.326016 5 0 5 
z
" style="stroke: #ff0000"/>
    </defs>
    <g clip-path="url(#p7f7766a619)">
     <use xlink:href="#m31561b3784" x="189.499793" y="151.259867" style="fill: #ff0000; stroke: #ff0000"/>
    </g>
   </g>
  </g>
  <g id="axes_2">
   <g id="patch_5">
    <path d="M 48.6 66.77561 
L 250.902439 66.77561 
L 250.902439 16.2 
L 48.6 16.2 
z
" style="fill: #ffffff"/>
   </g>
   <g id="patch_6">
    <path d="M 57.795565 66.77561 
L 70.056319 66.77561 
L 70.056319 59.894574 
L 57.795565 59.894574 
z
" clip-path="url(#pd18a0f56fc)" style="fill: #808080"/>
   </g>
   <g id="patch_7">
    <path d="M 70.056319 66.77561 
L 82.317073 66.77561 
L 82.317073 53.013539 
L 70.056319 53.013539 
z
" clip-path="url(#pd18a0f56fc)" style="fill: #808080"/>
   </g>
   <g id="patch_8">
    <path d="M 82.317073 66.77561 
L 94.577827 66.77561 
L 94.577827 66.77561 
L 82.317073 66.77561 
z
" clip-path="url(#pd18a0f56fc)" style="fill: #808080"/>
   </g>
   <g id="patch_9">
    <path d="M 94.577827 66.77561 
L 106.838581 66.77561 
L 106.838581 66.77561 
L 94.577827 66.77561 
z
" clip-path="url(#pd18a0f56fc)" style="fill: #808080"/>
   </g>
   <g id="patch_10">
    <path d="M 106.838581 66.77561 
L 119.099335 66.77561 
L 119.099335 59.894574 
L 106.838581 59.894574 
z
" clip-path="url(#pd18a0f56fc)" style="fill: #808080"/>
   </g>
   <g id="patch_11">
    <path d="M 119.099335 66.77561 
L 131.360089 66.77561 
L 131.360089 66.77561 
L 119.099335 66.77561 
z
" clip-path="url(#pd18a0f56fc)" style="fill: #808080"/>
   </g>
   <g id="patch_12">
    <path d="M 131.360089 66.77561 
L 143.620843 66.77561 
L 143.620843 59.894574 
L 131.360089 59.894574 
z
" clip-path="url(#pd18a0f56fc)" style="fill: #808080"/>
   </g>
   <g id="patch_13">
    <path d="M 143.620843 66.77561 
L 155.881596 66.77561 
L 155.881596 66.77561 
L 143.620843 66.77561 
z
" clip-path="url(#pd18a0f56fc)" style="fill: #808080"/>
   </g>
   <g id="patch_14">
    <path d="M 155.881596 66.77561 
L 168.14235 66.77561 
L 168.14235 46.132504 
L 155.881596 46.132504 
z
" clip-path="url(#pd18a0f56fc)" style="fill: #808080"/>
   </g>
   <g id="patch_15">
    <path d="M 168.14235 66.77561 
L 180.403104 66.77561 
L 180.403104 46.132504 
L 168.14235 46.132504 
z
" clip-path="url(#pd18a0f56fc)" style="fill: #808080"/>
   </g>
   <g id="patch_16">
    <path d="M 180.403104 66.77561 
L 192.663858 66.77561 
L 192.663858 46.132504 
L 180.403104 46.132504 
z
" clip-path="url(#pd18a0f56fc)" style="fill: #808080"/>
   </g>
   <g id="patch_17">
    <path d="M 192.663858 66.77561 
L 204.924612 66.77561 
L 204.924612 18.608362 
L 192.663858 18.608362 
z
" clip-path="url(#pd18a0f56fc)" style="fill: #808080"/>
   </g>
   <g id="patch_18">
    <path d="M 204.924612 66.77561 
L 217.185366 66.77561 
L 217.185366 46.132504 
L 204.924612 46.132504 
z
" clip-path="url(#pd18a0f56fc)" style="fill: #808080"/>
   </g>
   <g id="patch_19">
    <path d="M 217.185366 66.77561 
L 229.44612 66.77561 
L 229.44612 18.608362 
L 217.185366 18.608362 
z
" clip-path="url(#pd18a0f56fc)" style="fill: #808080"/>
   </g>
   <g id="patch_20">
    <path d="M 229.44612 66.77561 
L 241.706874 66.77561 
L 241.706874 59.894574 
L 229.44612 59.894574 
z
" clip-path="url(#pd18a0f56fc)" style="fill: #808080"/>
   </g>
   <g id="matplotlib.axis_3">
    <g id="xtick_7">
     <g id="line2d_12">
      <g>
       <use xlink:href="#m185813815c" x="72.66202" y="66.77561" style="stroke: #000000; stroke-width: 0.8"/>
      </g>
     </g>
    </g>
    <g id="xtick_8">
     <g id="line2d_13">
      <g>
       <use xlink:href="#m185813815c" x="107.559802" y="66.77561" style="stroke: #000000; stroke-width: 0.8"/>
      </g>
     </g>
    </g>
    <g id="xtick_9">
     <g id="line2d_14">
      <g>
       <use xlink:href="#m185813815c" x="142.457583" y="66.77561" style="stroke: #000000; stroke-width: 0.8"/>
      </g>
     </g>
    </g>
    <g id="xtick_10">
     <g id="line2d_15">
      <g>
       <use xlink:href="#m185813815c" x="177.355365" y="66.77561" style="stroke: #000000; stroke-width: 0.8"/>
      </g>
     </g>
    </g>
    <g id="xtick_11">
     <g id="line2d_16">
      <g>
       <use xlink:href="#m185813815c" x="212.253146" y="66.77561" style="stroke: #000000; stroke-width: 0.8"/>
      </g>
     </g>
    </g>
    <g id="xtick_12">
     <g id="line2d_17">
      <g>
       <use xlink:href="#m185813815c" x="247.150928" y="66.77561" style="stroke: #000000; stroke-width: 0.8"/>
      </g>
     </g>
    </g>
   </g>
   <g id="matplotlib.axis_4">
    <g id="ytick_6">
     <g id="line2d_18">
      <g>
       <use xlink:href="#me21005f7ff" x="48.6" y="66.77561" style="stroke: #000000; stroke-width: 0.8"/>
      </g>
     </g>
     <g id="text_14">
      <!-- 0 -->
      <g transform="translate(35.2375 70.574829)scale(0.1 -0.1)">
       <use xlink:href="#DejaVuSans-30"/>
      </g>
     </g>
    </g>
    <g id="ytick_7">
     <g id="line2d_19">
      <g>
       <use xlink:href="#me21005f7ff" x="48.6" y="32.370433" style="stroke: #000000; stroke-width: 0.8"/>
      </g>
     </g>
     <g id="text_15">
      <!-- 5 -->
      <g transform="translate(35.2375 36.169652)scale(0.1 -0.1)">
       <use xlink:href="#DejaVuSans-35"/>
      </g>
     </g>
    </g>
   </g>
   <g id="line2d_20">
    <path d="M 189.499793 66.77561 
L 189.499793 16.2 
" clip-path="url(#pd18a0f56fc)" style="fill: none; stroke-dasharray: 5.55,2.4; stroke-dashoffset: 0; stroke: #ff0000; stroke-opacity: 0.6; stroke-width: 1.5"/>
   </g>
   <g id="patch_21">
    <path d="M 48.6 66.77561 
L 48.6 16.2 
" style="fill: none; stroke: #000000; stroke-width: 0.8; stroke-linejoin: miter; stroke-linecap: square"/>
   </g>
   <g id="patch_22">
    <path d="M 48.6 66.77561 
L 250.902439 66.77561 
" style="fill: none; stroke: #000000; stroke-width: 0.8; stroke-linejoin: miter; stroke-linecap: square"/>
   </g>
  </g>
  <g id="axes_3">
   <g id="patch_23">
    <path d="M 257.22439 275.4 
L 307.8 275.4 
L 307.8 73.097561 
L 257.22439 73.097561 
z
" style="fill: #ffffff"/>
   </g>
   <g id="patch_24">
    <path d="M 257.22439 266.204435 
L 263.245296 266.204435 
L 263.245296 253.943681 
L 257.22439 253.943681 
z
" clip-path="url(#pcc3a80f4e7)" style="fill: #808080"/>
   </g>
   <g id="patch_25">
    <path d="M 257.22439 253.943681 
L 257.22439 253.943681 
L 257.22439 241.682927 
L 257.22439 241.682927 
z
" clip-path="url(#pcc3a80f4e7)" style="fill: #808080"/>
   </g>
   <g id="patch_26">
    <path d="M 257.22439 241.682927 
L 263.245296 241.682927 
L 263.245296 229.422173 
L 257.22439 229.422173 
z
" clip-path="url(#pcc3a80f4e7)" style="fill: #808080"/>
   </g>
   <g id="patch_27">
    <path d="M 257.22439 229.422173 
L 269.266202 229.422173 
L 269.266202 217.161419 
L 257.22439 217.161419 
z
" clip-path="url(#pcc3a80f4e7)" style="fill: #808080"/>
   </g>
   <g id="patch_28">
    <path d="M 257.22439 217.161419 
L 257.22439 217.161419 
L 257.22439 204.900665 
L 257.22439 204.900665 
z
" clip-path="url(#pcc3a80f4e7)" style="fill: #808080"/>
   </g>
   <g id="patch_29">
    <path d="M 257.22439 204.900665 
L 263.245296 204.900665 
L 263.245296 192.639911 
L 257.22439 192.639911 
z
" clip-path="url(#pcc3a80f4e7)" style="fill: #808080"/>
   </g>
   <g id="patch_30">
    <path d="M 257.22439 192.639911 
L 293.349826 192.639911 
L 293.349826 180.379157 
L 257.22439 180.379157 
z
" clip-path="url(#pcc3a80f4e7)" style="fill: #808080"/>
   </g>
   <g id="patch_31">
    <path d="M 257.22439 180.379157 
L 275.287108 180.379157 
L 275.287108 168.118404 
L 257.22439 168.118404 
z
" clip-path="url(#pcc3a80f4e7)" style="fill: #808080"/>
   </g>
   <g id="patch_32">
    <path d="M 257.22439 168.118404 
L 257.22439 168.118404 
L 257.22439 155.85765 
L 257.22439 155.85765 
z
" clip-path="url(#pcc3a80f4e7)" style="fill: #808080"/>
   </g>
   <g id="patch_33">
    <path d="M 257.22439 155.85765 
L 305.391638 155.85765 
L 305.391638 143.596896 
L 257.22439 143.596896 
z
" clip-path="url(#pcc3a80f4e7)" style="fill: #808080"/>
   </g>
   <g id="patch_34">
    <path d="M 257.22439 143.596896 
L 257.22439 143.596896 
L 257.22439 131.336142 
L 257.22439 131.336142 
z
" clip-path="url(#pcc3a80f4e7)" style="fill: #808080"/>
   </g>
   <g id="patch_35">
    <path d="M 257.22439 131.336142 
L 281.308014 131.336142 
L 281.308014 119.075388 
L 257.22439 119.075388 
z
" clip-path="url(#pcc3a80f4e7)" style="fill: #808080"/>
   </g>
   <g id="patch_36">
    <path d="M 257.22439 119.075388 
L 281.308014 119.075388 
L 281.308014 106.814634 
L 257.22439 106.814634 
z
" clip-path="url(#pcc3a80f4e7)" style="fill: #808080"/>
   </g>
   <g id="patch_37">
    <path d="M 257.22439 106.814634 
L 257.22439 106.814634 
L 257.22439 94.55388 
L 257.22439 94.55388 
z
" clip-path="url(#pcc3a80f4e7)" style="fill: #808080"/>
   </g>
   <g id="patch_38">
    <path d="M 257.22439 94.55388 
L 269.266202 94.55388 
L 269.266202 82.293126 
L 257.22439 82.293126 
z
" clip-path="url(#pcc3a80f4e7)" style="fill: #808080"/>
   </g>
   <g id="matplotlib.axis_5">
    <g id="xtick_13">
     <g id="line2d_21">
      <g>
       <use xlink:href="#m185813815c" x="257.22439" y="275.4" style="stroke: #000000; stroke-width: 0.8"/>
      </g>
     </g>
     <g id="text_16">
      <!-- 0 -->
      <g transform="translate(254.04314 289.998438)scale(0.1 -0.1)">
       <use xlink:href="#DejaVuSans-30"/>
      </g>
     </g>
    </g>
    <g id="xtick_14">
     <g id="line2d_22">
      <g>
       <use xlink:href="#m185813815c" x="287.32892" y="275.4" style="stroke: #000000; stroke-width: 0.8"/>
      </g>
     </g>
     <g id="text_17">
      <!-- 5 -->
      <g transform="translate(284.14767 289.998438)scale(0.1 -0.1)">
       <use xlink:href="#DejaVuSans-35"/>
      </g>
     </g>
    </g>
   </g>
   <g id="matplotlib.axis_6">
    <g id="ytick_8">
     <g id="line2d_23">
      <g>
       <use xlink:href="#me21005f7ff" x="257.22439" y="275.4" style="stroke: #000000; stroke-width: 0.8"/>
      </g>
     </g>
    </g>
    <g id="ytick_9">
     <g id="line2d_24">
      <g>
       <use xlink:href="#me21005f7ff" x="257.22439" y="234.019956" style="stroke: #000000; stroke-width: 0.8"/>
      </g>
     </g>
    </g>
    <g id="ytick_10">
     <g id="line2d_25">
      <g>
       <use xlink:href="#me21005f7ff" x="257.22439" y="192.639911" style="stroke: #000000; stroke-width: 0.8"/>
      </g>
     </g>
    </g>
    <g id="ytick_11">
     <g id="line2d_26">
      <g>
       <use xlink:href="#me21005f7ff" x="257.22439" y="151.259867" style="stroke: #000000; stroke-width: 0.8"/>
      </g>
     </g>
    </g>
    <g id="ytick_12">
     <g id="line2d_27">
      <g>
       <use xlink:href="#me21005f7ff" x="257.22439" y="109.879823" style="stroke: #000000; stroke-width: 0.8"/>
      </g>
     </g>
    </g>
   </g>
   <g id="line2d_28">
    <path d="M 257.22439 151.259867 
L 307.8 151.259867 
" clip-path="url(#pcc3a80f4e7)" style="fill: none; stroke-dasharray: 5.55,2.4; stroke-dashoffset: 0; stroke: #ff0000; stroke-opacity: 0.6; stroke-width: 1.5"/>
   </g>
   <g id="patch_39">
    <path d="M 257.22439 275.4 
L 257.22439 73.097561 
" style="fill: none; stroke: #000000; stroke-width: 0.8; stroke-linejoin: miter; stroke-linecap: square"/>
   </g>
   <g id="patch_40">
    <path d="M 257.22439 275.4 
L 307.8 275.4 
" style="fill: none; stroke: #000000; stroke-width: 0.8; stroke-linejoin: miter; stroke-linecap: square"/>
   </g>
  </g>
 </g>
 <defs>
  <clipPath id="p7f7766a619">
   <rect x="48.6" y="73.097561" width="202.302439" height="202.302439"/>
  </clipPath>
  <clipPath id="pd18a0f56fc">
   <rect x="48.6" y="16.2" width="202.302439" height="50.57561"/>
  </clipPath>
  <clipPath id="pcc3a80f4e7">
   <rect x="257.22439" y="73.097561" width="50.57561" height="202.302439"/>
  </clipPath>
 </defs>
</svg>
