<?xml version="1.0" encoding="utf-8" standalone="no"?>
<!DOCTYPE svg PUBLIC "-//W3C//DTD SVG 1.1//EN"
  "http://www.w3.org/Graphics/SVG/1.1/DTD/svg11.dtd">
<svg xmlns:xlink="http://www.w3.org/1999/xlink" width="324pt" height="324pt" viewBox="0 0 324 324" xmlns="http://www.w3.org/2000/svg" version="1.1">
 <metadata>
  <rdf:RDF xmlns:dc="http://purl.org/dc/elements/1.1/" xmlns:cc="http://creativecommons.org/ns#" xmlns:rdf="http://www.w3.org/1999/02/22-rdf-syntax-ns#">
   <cc:Work>
    <dc:type rdf:resource="http://purl.org/dc/dcmitype/StillImage"/>
    <dc:date>2025-07-26T19:04:44.542208</dc:date>
    <dc:format>image/svg+xml</dc:format>
    <dc:creator>
     <cc:Agent>
      <dc:title>Matplotlib v3.5.1, https://matplotlib.org/</dc:title>
     </cc:Agent>
    </dc:creator>
   </cc:Work>
  </rdf:RDF>
 </metadata>
 <defs>
  <style type="text/css">*{stroke-linejoin: round; stroke-linecap: butt}</style>
 </defs>
 <g id="figure_1">
  <g id="patch_1">
   <path d="M 0 324 
L 324 324 
L 324 0 
L 0 0 
z
" style="fill: #ffffff"/>
  </g>
  <g id="axes_1">
   <g id="patch_2">
    <path d="M 32.4 291.6 
L 234.702439 291.6 
L 234.702439 89.297561 
L 32.4 89.297561 
z
" style="fill: #ffffff"/>
   </g>
   <g id="PathCollection_1">
    <defs>
     <path id="m93c007e375" d="M 0 3 
C 0.795609 3 1.55874 2.683901 2.12132 2.12132 
C 2.683901 1.55874 3 0.795609 3 0 
C 3 -0.795609 2.683901 -1.55874 2.12132 -2.12132 
C 1.55874 -2.683901 0.795609 -3 0 -3 
C -0.795609 -3 -1.55874 -2.683901 -2.12132 -2.12132 
C -2.683901 -1.55874 -3 -0.795609 -3 0 
C -3 0.795609 -2.683901 1.55874 -2.12132 2.12132 
C -1.55874 2.683901 -0.795609 3 0 3 
z
" style="stroke: #000000"/>
    </defs>
    <g clip-path="url(#pf179d88ff5)">
     <use xlink:href="#m93c007e375" x="218.99633" y="275.345213" style="stroke: #000000"/>
     <use xlink:href="#m93c007e375" x="201.911925" y="282.404435" style="stroke: #000000"/>
     <use xlink:href="#m93c007e375" x="192.030675" y="270.886757" style="stroke: #000000"/>
     <use xlink:href="#m93c007e375" x="199.049133" y="267.914453" style="stroke: #000000"/>
     <use xlink:href="#m93c007e375" x="213.409268" y="235.590647" style="stroke: #000000"/>
     <use xlink:href="#m93c007e375" x="219.550419" y="214.784519" style="stroke: #000000"/>
     <use xlink:href="#m93c007e375" x="188.752316" y="172.800726" style="stroke: #000000"/>
     <use xlink:href="#m93c007e375" x="189.398753" y="263.455997" style="stroke: #000000"/>
     <use xlink:href="#m93c007e375" x="189.952842" y="277.202903" style="stroke: #000000"/>
     <use xlink:href="#m93c007e375" x="225.322177" y="254.910623" style="stroke: #000000"/>
     <use xlink:href="#m93c007e375" x="179.702199" y="172.05765" style="stroke: #000000"/>
     <use xlink:href="#m93c007e375" x="208.930384" y="221.843741" style="stroke: #000000"/>
     <use xlink:href="#m93c007e375" x="211.654654" y="268.285991" style="stroke: #000000"/>
     <use xlink:href="#m93c007e375" x="200.94227" y="257.882927" style="stroke: #000000"/>
     <use xlink:href="#m93c007e375" x="221.351208" y="245.250635" style="stroke: #000000"/>
     <use xlink:href="#m93c007e375" x="210.315606" y="196.950695" style="stroke: #000000"/>
     <use xlink:href="#m93c007e375" x="221.859122" y="228.159887" style="stroke: #000000"/>
     <use xlink:href="#m93c007e375" x="225.506874" y="275.345213" style="stroke: #000000"/>
     <use xlink:href="#m93c007e375" x="217.380238" y="230.017577" style="stroke: #000000"/>
     <use xlink:href="#m93c007e375" x="190.599279" y="282.404435" style="stroke: #000000"/>
     <use xlink:href="#m93c007e375" x="215.163883" y="263.455997" style="stroke: #000000"/>
     <use xlink:href="#m93c007e375" x="204.682369" y="238.191413" style="stroke: #000000"/>
     <use xlink:href="#m93c007e375" x="186.628309" y="165.741504" style="stroke: #000000"/>
     <use xlink:href="#m93c007e375" x="218.626938" y="269.772143" style="stroke: #000000"/>
     <use xlink:href="#m93c007e375" x="215.440927" y="280.175207" style="stroke: #000000"/>
     <use xlink:href="#m93c007e375" x="218.119023" y="228.159887" style="stroke: #000000"/>
     <use xlink:href="#m93c007e375" x="183.719343" y="241.906793" style="stroke: #000000"/>
     <use xlink:href="#m93c007e375" x="183.996388" y="272.001371" style="stroke: #000000"/>
     <use xlink:href="#m93c007e375" x="210.962043" y="166.856118" style="stroke: #000000"/>
     <use xlink:href="#m93c007e375" x="148.765575" y="277.945979" style="stroke: #000000"/>
     <use xlink:href="#m93c007e375" x="179.609851" y="229.274501" style="stroke: #000000"/>
     <use xlink:href="#m93c007e375" x="154.029418" y="242.278331" style="stroke: #000000"/>
     <use xlink:href="#m93c007e375" x="194.477901" y="152.737674" style="stroke: #000000"/>
     <use xlink:href="#m93c007e375" x="187.274746" y="265.685225" style="stroke: #000000"/>
     <use xlink:href="#m93c007e375" x="224.306348" y="230.760653" style="stroke: #000000"/>
     <use xlink:href="#m93c007e375" x="215.995016" y="215.527595" style="stroke: #000000"/>
     <use xlink:href="#m93c007e375" x="203.250973" y="136.390002" style="stroke: #000000"/>
     <use xlink:href="#m93c007e375" x="178.547848" y="252.681395" style="stroke: #000000"/>
     <use xlink:href="#m93c007e375" x="141.931813" y="253.796009" style="stroke: #000000"/>
     <use xlink:href="#m93c007e375" x="154.722029" y="186.91917" style="stroke: #000000"/>
     <use xlink:href="#m93c007e375" x="181.179769" y="199.922999" style="stroke: #000000"/>
     <use xlink:href="#m93c007e375" x="152.551848" y="243.392945" style="stroke: #000000"/>
     <use xlink:href="#m93c007e375" x="168.528075" y="178.002258" style="stroke: #000000"/>
     <use xlink:href="#m93c007e375" x="129.788033" y="197.693771" style="stroke: #000000"/>
     <use xlink:href="#m93c007e375" x="213.455442" y="244.507559" style="stroke: #000000"/>
     <use xlink:href="#m93c007e375" x="202.743059" y="229.274501" style="stroke: #000000"/>
     <use xlink:href="#m93c007e375" x="195.170512" y="214.412981" style="stroke: #000000"/>
     <use xlink:href="#m93c007e375" x="210.869694" y="269.029067" style="stroke: #000000"/>
     <use xlink:href="#m93c007e375" x="142.80912" y="279.060593" style="stroke: #000000"/>
     <use xlink:href="#m93c007e375" x="170.975301" y="137.133078" style="stroke: #000000"/>
     <use xlink:href="#m93c007e375" x="154.398811" y="180.603024" style="stroke: #000000"/>
     <use xlink:href="#m93c007e375" x="199.510874" y="98.493126" style="stroke: #000000"/>
     <use xlink:href="#m93c007e375" x="144.379038" y="115.212336" style="stroke: #000000"/>
     <use xlink:href="#m93c007e375" x="128.079593" y="118.927716" style="stroke: #000000"/>
     <use xlink:href="#m93c007e375" x="167.327549" y="108.524652" style="stroke: #000000"/>
     <use xlink:href="#m93c007e375" x="129.741859" y="157.939206" style="stroke: #000000"/>
     <use xlink:href="#m93c007e375" x="97.650883" y="242.278331" style="stroke: #000000"/>
     <use xlink:href="#m93c007e375" x="113.257717" y="153.48075" style="stroke: #000000"/>
     <use xlink:href="#m93c007e375" x="124.708886" y="277.202903" style="stroke: #000000"/>
     <use xlink:href="#m93c007e375" x="107.347437" y="174.658416" style="stroke: #000000"/>
     <use xlink:href="#m93c007e375" x="196.9713" y="189.891473" style="stroke: #000000"/>
     <use xlink:href="#m93c007e375" x="200.572878" y="198.436847" style="stroke: #000000"/>
     <use xlink:href="#m93c007e375" x="176.700885" y="178.745334" style="stroke: #000000"/>
     <use xlink:href="#m93c007e375" x="121.384353" y="215.156057" style="stroke: #000000"/>
     <use xlink:href="#m93c007e375" x="108.455614" y="185.804556" style="stroke: #000000"/>
     <use xlink:href="#m93c007e375" x="89.062506" y="162.026124" style="stroke: #000000"/>
     <use xlink:href="#m93c007e375" x="159.524132" y="263.084459" style="stroke: #000000"/>
     <use xlink:href="#m93c007e375" x="96.727401" y="272.744447" style="stroke: #000000"/>
     <use xlink:href="#m93c007e375" x="95.018961" y="244.507559" style="stroke: #000000"/>
     <use xlink:href="#m93c007e375" x="135.328921" y="194.349929" style="stroke: #000000"/>
     <use xlink:href="#m93c007e375" x="181.272118" y="115.212336" style="stroke: #000000"/>
     <use xlink:href="#m93c007e375" x="168.666597" y="152.737674" style="stroke: #000000"/>
     <use xlink:href="#m93c007e375" x="83.1984" y="281.289821" style="stroke: #000000"/>
     <use xlink:href="#m93c007e375" x="158.36978" y="177.63072" style="stroke: #000000"/>
     <use xlink:href="#m93c007e375" x="113.303891" y="182.089176" style="stroke: #000000"/>
     <use xlink:href="#m93c007e375" x="41.595565" y="151.251522" style="stroke: #000000"/>
     <use xlink:href="#m93c007e375" x="131.773518" y="233.732957" style="stroke: #000000"/>
     <use xlink:href="#m93c007e375" x="81.9517" y="187.290708" style="stroke: #000000"/>
     <use xlink:href="#m93c007e375" x="139.807806" y="253.796009" style="stroke: #000000"/>
     <use xlink:href="#m93c007e375" x="200.757574" y="277.202903" style="stroke: #000000"/>
     <use xlink:href="#m93c007e375" x="222.228515" y="273.859061" style="stroke: #000000"/>
     <use xlink:href="#m93c007e375" x="225.229829" y="282.404435" style="stroke: #000000"/>
     <use xlink:href="#m93c007e375" x="221.258859" y="282.032897" style="stroke: #000000"/>
     <use xlink:href="#m93c007e375" x="224.952785" y="261.226769" style="stroke: #000000"/>
     <use xlink:href="#m93c007e375" x="190.460757" y="231.132191" style="stroke: #000000"/>
     <use xlink:href="#m93c007e375" x="192.123023" y="162.7692" style="stroke: #000000"/>
     <use xlink:href="#m93c007e375" x="138.884324" y="277.202903" style="stroke: #000000"/>
     <use xlink:href="#m93c007e375" x="194.01616" y="205.867607" style="stroke: #000000"/>
     <use xlink:href="#m93c007e375" x="103.284119" y="250.080629" style="stroke: #000000"/>
     <use xlink:href="#m93c007e375" x="187.367094" y="135.646926" style="stroke: #000000"/>
     <use xlink:href="#m93c007e375" x="141.56242" y="236.333723" style="stroke: #000000"/>
     <use xlink:href="#m93c007e375" x="63.343551" y="263.455997" style="stroke: #000000"/>
     <use xlink:href="#m93c007e375" x="114.365895" y="218.499899" style="stroke: #000000"/>
     <use xlink:href="#m93c007e375" x="106.839522" y="101.836968" style="stroke: #000000"/>
     <use xlink:href="#m93c007e375" x="65.60608" y="109.267728" style="stroke: #000000"/>
     <use xlink:href="#m93c007e375" x="213.871009" y="237.076799" style="stroke: #000000"/>
     <use xlink:href="#m93c007e375" x="225.506874" y="280.918283" style="stroke: #000000"/>
     <use xlink:href="#m93c007e375" x="225.506874" y="279.432131" style="stroke: #000000"/>
     <use xlink:href="#m93c007e375" x="170.929127" y="226.673735" style="stroke: #000000"/>
     <use xlink:href="#m93c007e375" x="172.406697" y="272.744447" style="stroke: #000000"/>
     <use xlink:href="#m93c007e375" x="54.293434" y="282.032897" style="stroke: #000000"/>
     <use xlink:href="#m93c007e375" x="187.367094" y="109.267728" style="stroke: #000000"/>
     <use xlink:href="#m93c007e375" x="163.772146" y="167.599194" style="stroke: #000000"/>
     <use xlink:href="#m93c007e375" x="145.579564" y="282.404435" style="stroke: #000000"/>
     <use xlink:href="#m93c007e375" x="160.401439" y="254.167547" style="stroke: #000000"/>
     <use xlink:href="#m93c007e375" x="184.181084" y="257.882927" style="stroke: #000000"/>
    </g>
   </g>
   <g id="PathCollection_2">
    <defs>
     <path id="m9b98b6d4e0" d="M 0 3.354102 
C 0.889518 3.354102 1.742724 3.000693 2.371708 2.371708 
C 3.000693 1.742724 3.354102 0.889518 3.354102 0 
C 3.354102 -0.889518 3.000693 -1.742724 2.371708 -2.371708 
C 1.742724 -3.000693 0.889518 -3.354102 0 -3.354102 
C -0.889518 -3.354102 -1.742724 -3.000693 -2.371708 -2.371708 
C -3.000693 -1.742724 -3.354102 -0.889518 -3.354102 0 
C -3.354102 0.889518 -3.000693 1.742724 -2.371708 2.371708 
C -1.742724 3.000693 -0.889518 3.354102 0 3.354102 
z
" style="stroke: #ff0000"/>
    </defs>
    <g clip-path="url(#pf179d88ff5)">
     <use xlink:href="#m9b98b6d4e0" x="184.181084" y="257.882927" style="fill: #ff0000; stroke: #ff0000"/>
     <use xlink:href="#m9b98b6d4e0" x="187.367094" y="109.267728" style="fill: #ff0000; stroke: #ff0000"/>
     <use xlink:href="#m9b98b6d4e0" x="163.772146" y="167.599194" style="fill: #ff0000; stroke: #ff0000"/>
     <use xlink:href="#m9b98b6d4e0" x="145.579564" y="282.404435" style="fill: #ff0000; stroke: #ff0000"/>
     <use xlink:href="#m9b98b6d4e0" x="160.401439" y="254.167547" style="fill: #ff0000; stroke: #ff0000"/>
     <use xlink:href="#m9b98b6d4e0" x="172.406697" y="272.744447" style="fill: #ff0000; stroke: #ff0000"/>
     <use xlink:href="#m9b98b6d4e0" x="54.293434" y="282.032897" style="fill: #ff0000; stroke: #ff0000"/>
    </g>
   </g>
   <g id="matplotlib.axis_1">
    <g id="xtick_1">
     <g id="line2d_1">
      <defs>
       <path id="m7bca5c7f93" d="M 0 0 
L 0 3.5 
" style="stroke: #000000; stroke-width: 0.8"/>
      </defs>
      <g>
       <use xlink:href="#m7bca5c7f93" x="40.810606" y="291.6" style="stroke: #000000; stroke-width: 0.8"/>
      </g>
     </g>
     <g id="text_1">
      <!-- 60 -->
      <g transform="translate(37.629356 302.399219)scale(0.05 -0.05)">
       <defs>
        <path id="DejaVuSans-36" d="M 2113 2584 
Q 1688 2584 1439 2293 
Q 1191 2003 1191 1497 
Q 1191 994 1439 701 
Q 1688 409 2113 409 
Q 2538 409 2786 701 
Q 3034 994 3034 1497 
Q 3034 2003 2786 2293 
Q 2538 2584 2113 2584 
z
M 3366 4563 
L 3366 3988 
Q 3128 4100 2886 4159 
Q 2644 4219 2406 4219 
Q 1781 4219 1451 3797 
Q 1122 3375 1075 2522 
Q 1259 2794 1537 2939 
Q 1816 3084 2150 3084 
Q 2853 3084 3261 2657 
Q 3669 2231 3669 1497 
Q 3669 778 3244 343 
Q 2819 -91 2113 -91 
Q 1303 -91 875 529 
Q 447 1150 447 2328 
Q 447 3434 972 4092 
Q 1497 4750 2381 4750 
Q 2619 4750 2861 4703 
Q 3103 4656 3366 4563 
z
" transform="scale(0.015625)"/>
        <path id="DejaVuSans-30" d="M 2034 4250 
Q 1547 4250 1301 3770 
Q 1056 3291 1056 2328 
Q 1056 1369 1301 889 
Q 1547 409 2034 409 
Q 2525 409 2770 889 
Q 3016 1369 3016 2328 
Q 3016 3291 2770 3770 
Q 2525 4250 2034 4250 
z
M 2034 4750 
Q 2819 4750 3233 4129 
Q 3647 3509 3647 2328 
Q 3647 1150 3233 529 
Q 2819 -91 2034 -91 
Q 1250 -91 836 529 
Q 422 1150 422 2328 
Q 422 3509 836 4129 
Q 1250 4750 2034 4750 
z
" transform="scale(0.015625)"/>
       </defs>
       <use xlink:href="#DejaVuSans-36"/>
       <use xlink:href="#DejaVuSans-30" x="63.623047"/>
      </g>
     </g>
    </g>
    <g id="xtick_2">
     <g id="line2d_2">
      <g>
       <use xlink:href="#m7bca5c7f93" x="63.89764" y="291.6" style="stroke: #000000; stroke-width: 0.8"/>
      </g>
     </g>
     <g id="text_2">
      <!-- 65 -->
      <g transform="translate(60.71639 302.399219)scale(0.05 -0.05)">
       <defs>
        <path id="DejaVuSans-35" d="M 691 4666 
L 3169 4666 
L 3169 4134 
L 1269 4134 
L 1269 2991 
Q 1406 3038 1543 3061 
Q 1681 3084 1819 3084 
Q 2600 3084 3056 2656 
Q 3513 2228 3513 1497 
Q 3513 744 3044 326 
Q 2575 -91 1722 -91 
Q 1428 -91 1123 -41 
Q 819 9 494 109 
L 494 744 
Q 775 591 1075 516 
Q 1375 441 1709 441 
Q 2250 441 2565 725 
Q 2881 1009 2881 1497 
Q 2881 1984 2565 2268 
Q 2250 2553 1709 2553 
Q 1456 2553 1204 2497 
Q 953 2441 691 2322 
L 691 4666 
z
" transform="scale(0.015625)"/>
       </defs>
       <use xlink:href="#DejaVuSans-36"/>
       <use xlink:href="#DejaVuSans-35" x="63.623047"/>
      </g>
     </g>
    </g>
    <g id="xtick_3">
     <g id="line2d_3">
      <g>
       <use xlink:href="#m7bca5c7f93" x="86.984673" y="291.6" style="stroke: #000000; stroke-width: 0.8"/>
      </g>
     </g>
     <g id="text_3">
      <!-- 70 -->
      <g transform="translate(83.803423 302.399219)scale(0.05 -0.05)">
       <defs>
        <path id="DejaVuSans-37" d="M 525 4666 
L 3525 4666 
L 3525 4397 
L 1831 0 
L 1172 0 
L 2766 4134 
L 525 4134 
L 525 4666 
z
" transform="scale(0.015625)"/>
       </defs>
       <use xlink:href="#DejaVuSans-37"/>
       <use xlink:href="#DejaVuSans-30" x="63.623047"/>
      </g>
     </g>
    </g>
    <g id="xtick_4">
     <g id="line2d_4">
      <g>
       <use xlink:href="#m7bca5c7f93" x="110.071707" y="291.6" style="stroke: #000000; stroke-width: 0.8"/>
      </g>
     </g>
     <g id="text_4">
      <!-- 75 -->
      <g transform="translate(106.890457 302.399219)scale(0.05 -0.05)">
       <use xlink:href="#DejaVuSans-37"/>
       <use xlink:href="#DejaVuSans-35" x="63.623047"/>
      </g>
     </g>
    </g>
    <g id="xtick_5">
     <g id="line2d_5">
      <g>
       <use xlink:href="#m7bca5c7f93" x="133.15874" y="291.6" style="stroke: #000000; stroke-width: 0.8"/>
      </g>
     </g>
     <g id="text_5">
      <!-- 80 -->
      <g transform="translate(129.97749 302.399219)scale(0.05 -0.05)">
       <defs>
        <path id="DejaVuSans-38" d="M 2034 2216 
Q 1584 2216 1326 1975 
Q 1069 1734 1069 1313 
Q 1069 891 1326 650 
Q 1584 409 2034 409 
Q 2484 409 2743 651 
Q 3003 894 3003 1313 
Q 3003 1734 2745 1975 
Q 2488 2216 2034 2216 
z
M 1403 2484 
Q 997 2584 770 2862 
Q 544 3141 544 3541 
Q 544 4100 942 4425 
Q 1341 4750 2034 4750 
Q 2731 4750 3128 4425 
Q 3525 4100 3525 3541 
Q 3525 3141 3298 2862 
Q 3072 2584 2669 2484 
Q 3125 2378 3379 2068 
Q 3634 1759 3634 1313 
Q 3634 634 3220 271 
Q 2806 -91 2034 -91 
Q 1263 -91 848 271 
Q 434 634 434 1313 
Q 434 1759 690 2068 
Q 947 2378 1403 2484 
z
M 1172 3481 
Q 1172 3119 1398 2916 
Q 1625 2713 2034 2713 
Q 2441 2713 2670 2916 
Q 2900 3119 2900 3481 
Q 2900 3844 2670 4047 
Q 2441 4250 2034 4250 
Q 1625 4250 1398 4047 
Q 1172 3844 1172 3481 
z
" transform="scale(0.015625)"/>
       </defs>
       <use xlink:href="#DejaVuSans-38"/>
       <use xlink:href="#DejaVuSans-30" x="63.623047"/>
      </g>
     </g>
    </g>
    <g id="xtick_6">
     <g id="line2d_6">
      <g>
       <use xlink:href="#m7bca5c7f93" x="156.245773" y="291.6" style="stroke: #000000; stroke-width: 0.8"/>
      </g>
     </g>
     <g id="text_6">
      <!-- 85 -->
      <g transform="translate(153.064523 302.399219)scale(0.05 -0.05)">
       <use xlink:href="#DejaVuSans-38"/>
       <use xlink:href="#DejaVuSans-35" x="63.623047"/>
      </g>
     </g>
    </g>
    <g id="xtick_7">
     <g id="line2d_7">
      <g>
       <use xlink:href="#m7bca5c7f93" x="179.332807" y="291.6" style="stroke: #000000; stroke-width: 0.8"/>
      </g>
     </g>
     <g id="text_7">
      <!-- 90 -->
      <g transform="translate(176.151557 302.399219)scale(0.05 -0.05)">
       <defs>
        <path id="DejaVuSans-39" d="M 703 97 
L 703 672 
Q 941 559 1184 500 
Q 1428 441 1663 441 
Q 2288 441 2617 861 
Q 2947 1281 2994 2138 
Q 2813 1869 2534 1725 
Q 2256 1581 1919 1581 
Q 1219 1581 811 2004 
Q 403 2428 403 3163 
Q 403 3881 828 4315 
Q 1253 4750 1959 4750 
Q 2769 4750 3195 4129 
Q 3622 3509 3622 2328 
Q 3622 1225 3098 567 
Q 2575 -91 1691 -91 
Q 1453 -91 1209 -44 
Q 966 3 703 97 
z
M 1959 2075 
Q 2384 2075 2632 2365 
Q 2881 2656 2881 3163 
Q 2881 3666 2632 3958 
Q 2384 4250 1959 4250 
Q 1534 4250 1286 3958 
Q 1038 3666 1038 3163 
Q 1038 2656 1286 2365 
Q 1534 2075 1959 2075 
z
" transform="scale(0.015625)"/>
       </defs>
       <use xlink:href="#DejaVuSans-39"/>
       <use xlink:href="#DejaVuSans-30" x="63.623047"/>
      </g>
     </g>
    </g>
    <g id="xtick_8">
     <g id="line2d_8">
      <g>
       <use xlink:href="#m7bca5c7f93" x="202.41984" y="291.6" style="stroke: #000000; stroke-width: 0.8"/>
      </g>
     </g>
     <g id="text_8">
      <!-- 95 -->
      <g transform="translate(199.23859 302.399219)scale(0.05 -0.05)">
       <use xlink:href="#DejaVuSans-39"/>
       <use xlink:href="#DejaVuSans-35" x="63.623047"/>
      </g>
     </g>
    </g>
    <g id="xtick_9">
     <g id="line2d_9">
      <g>
       <use xlink:href="#m7bca5c7f93" x="225.506874" y="291.6" style="stroke: #000000; stroke-width: 0.8"/>
      </g>
     </g>
     <g id="text_9">
      <!-- 100 -->
      <g transform="translate(220.734999 302.399219)scale(0.05 -0.05)">
       <defs>
        <path id="DejaVuSans-31" d="M 794 531 
L 1825 531 
L 1825 4091 
L 703 3866 
L 703 4441 
L 1819 4666 
L 2450 4666 
L 2450 531 
L 3481 531 
L 3481 0 
L 794 0 
L 794 531 
z
" transform="scale(0.015625)"/>
       </defs>
       <use xlink:href="#DejaVuSans-31"/>
       <use xlink:href="#DejaVuSans-30" x="63.623047"/>
       <use xlink:href="#DejaVuSans-30" x="127.246094"/>
      </g>
     </g>
    </g>
    <g id="text_10">
     <!-- Completeness, % -->
     <g transform="translate(111.810595 311.238281)scale(0.05 -0.05)">
      <defs>
       <path id="DejaVuSans-43" d="M 4122 4306 
L 4122 3641 
Q 3803 3938 3442 4084 
Q 3081 4231 2675 4231 
Q 1875 4231 1450 3742 
Q 1025 3253 1025 2328 
Q 1025 1406 1450 917 
Q 1875 428 2675 428 
Q 3081 428 3442 575 
Q 3803 722 4122 1019 
L 4122 359 
Q 3791 134 3420 21 
Q 3050 -91 2638 -91 
Q 1578 -91 968 557 
Q 359 1206 359 2328 
Q 359 3453 968 4101 
Q 1578 4750 2638 4750 
Q 3056 4750 3426 4639 
Q 3797 4528 4122 4306 
z
" transform="scale(0.015625)"/>
       <path id="DejaVuSans-6f" d="M 1959 3097 
Q 1497 3097 1228 2736 
Q 959 2375 959 1747 
Q 959 1119 1226 758 
Q 1494 397 1959 397 
Q 2419 397 2687 759 
Q 2956 1122 2956 1747 
Q 2956 2369 2687 2733 
Q 2419 3097 1959 3097 
z
M 1959 3584 
Q 2709 3584 3137 3096 
Q 3566 2609 3566 1747 
Q 3566 888 3137 398 
Q 2709 -91 1959 -91 
Q 1206 -91 779 398 
Q 353 888 353 1747 
Q 353 2609 779 3096 
Q 1206 3584 1959 3584 
z
" transform="scale(0.015625)"/>
       <path id="DejaVuSans-6d" d="M 3328 2828 
Q 3544 3216 3844 3400 
Q 4144 3584 4550 3584 
Q 5097 3584 5394 3201 
Q 5691 2819 5691 2113 
L 5691 0 
L 5113 0 
L 5113 2094 
Q 5113 2597 4934 2840 
Q 4756 3084 4391 3084 
Q 3944 3084 3684 2787 
Q 3425 2491 3425 1978 
L 3425 0 
L 2847 0 
L 2847 2094 
Q 2847 2600 2669 2842 
Q 2491 3084 2119 3084 
Q 1678 3084 1418 2786 
Q 1159 2488 1159 1978 
L 1159 0 
L 581 0 
L 581 3500 
L 1159 3500 
L 1159 2956 
Q 1356 3278 1631 3431 
Q 1906 3584 2284 3584 
Q 2666 3584 2933 3390 
Q 3200 3197 3328 2828 
z
" transform="scale(0.015625)"/>
       <path id="DejaVuSans-70" d="M 1159 525 
L 1159 -1331 
L 581 -1331 
L 581 3500 
L 1159 3500 
L 1159 2969 
Q 1341 3281 1617 3432 
Q 1894 3584 2278 3584 
Q 2916 3584 3314 3078 
Q 3713 2572 3713 1747 
Q 3713 922 3314 415 
Q 2916 -91 2278 -91 
Q 1894 -91 1617 61 
Q 1341 213 1159 525 
z
M 3116 1747 
Q 3116 2381 2855 2742 
Q 2594 3103 2138 3103 
Q 1681 3103 1420 2742 
Q 1159 2381 1159 1747 
Q 1159 1113 1420 752 
Q 1681 391 2138 391 
Q 2594 391 2855 752 
Q 3116 1113 3116 1747 
z
" transform="scale(0.015625)"/>
       <path id="DejaVuSans-6c" d="M 603 4863 
L 1178 4863 
L 1178 0 
L 603 0 
L 603 4863 
z
" transform="scale(0.015625)"/>
       <path id="DejaVuSans-65" d="M 3597 1894 
L 3597 1613 
L 953 1613 
Q 991 1019 1311 708 
Q 1631 397 2203 397 
Q 2534 397 2845 478 
Q 3156 559 3463 722 
L 3463 178 
Q 3153 47 2828 -22 
Q 2503 -91 2169 -91 
Q 1331 -91 842 396 
Q 353 884 353 1716 
Q 353 2575 817 3079 
Q 1281 3584 2069 3584 
Q 2775 3584 3186 3129 
Q 3597 2675 3597 1894 
z
M 3022 2063 
Q 3016 2534 2758 2815 
Q 2500 3097 2075 3097 
Q 1594 3097 1305 2825 
Q 1016 2553 972 2059 
L 3022 2063 
z
" transform="scale(0.015625)"/>
       <path id="DejaVuSans-74" d="M 1172 4494 
L 1172 3500 
L 2356 3500 
L 2356 3053 
L 1172 3053 
L 1172 1153 
Q 1172 725 1289 603 
Q 1406 481 1766 481 
L 2356 481 
L 2356 0 
L 1766 0 
Q 1100 0 847 248 
Q 594 497 594 1153 
L 594 3053 
L 172 3053 
L 172 3500 
L 594 3500 
L 594 4494 
L 1172 4494 
z
" transform="scale(0.015625)"/>
       <path id="DejaVuSans-6e" d="M 3513 2113 
L 3513 0 
L 2938 0 
L 2938 2094 
Q 2938 2591 2744 2837 
Q 2550 3084 2163 3084 
Q 1697 3084 1428 2787 
Q 1159 2491 1159 1978 
L 1159 0 
L 581 0 
L 581 3500 
L 1159 3500 
L 1159 2956 
Q 1366 3272 1645 3428 
Q 1925 3584 2291 3584 
Q 2894 3584 3203 3211 
Q 3513 2838 3513 2113 
z
" transform="scale(0.015625)"/>
       <path id="DejaVuSans-73" d="M 2834 3397 
L 2834 2853 
Q 2591 2978 2328 3040 
Q 2066 3103 1784 3103 
Q 1356 3103 1142 2972 
Q 928 2841 928 2578 
Q 928 2378 1081 2264 
Q 1234 2150 1697 2047 
L 1894 2003 
Q 2506 1872 2764 1633 
Q 3022 1394 3022 966 
Q 3022 478 2636 193 
Q 2250 -91 1575 -91 
Q 1294 -91 989 -36 
Q 684 19 347 128 
L 347 722 
Q 666 556 975 473 
Q 1284 391 1588 391 
Q 1994 391 2212 530 
Q 2431 669 2431 922 
Q 2431 1156 2273 1281 
Q 2116 1406 1581 1522 
L 1381 1569 
Q 847 1681 609 1914 
Q 372 2147 372 2553 
Q 372 3047 722 3315 
Q 1072 3584 1716 3584 
Q 2034 3584 2315 3537 
Q 2597 3491 2834 3397 
z
" transform="scale(0.015625)"/>
       <path id="DejaVuSans-2c" d="M 750 794 
L 1409 794 
L 1409 256 
L 897 -744 
L 494 -744 
L 750 256 
L 750 794 
z
" transform="scale(0.015625)"/>
       <path id="DejaVuSans-20" transform="scale(0.015625)"/>
       <path id="DejaVuSans-25" d="M 4653 2053 
Q 4381 2053 4226 1822 
Q 4072 1591 4072 1178 
Q 4072 772 4226 539 
Q 4381 306 4653 306 
Q 4919 306 5073 539 
Q 5228 772 5228 1178 
Q 5228 1588 5073 1820 
Q 4919 2053 4653 2053 
z
M 4653 2450 
Q 5147 2450 5437 2106 
Q 5728 1763 5728 1178 
Q 5728 594 5436 251 
Q 5144 -91 4653 -91 
Q 4153 -91 3862 251 
Q 3572 594 3572 1178 
Q 3572 1766 3864 2108 
Q 4156 2450 4653 2450 
z
M 1428 4353 
Q 1159 4353 1004 4120 
Q 850 3888 850 3481 
Q 850 3069 1003 2837 
Q 1156 2606 1428 2606 
Q 1700 2606 1854 2837 
Q 2009 3069 2009 3481 
Q 2009 3884 1853 4118 
Q 1697 4353 1428 4353 
z
M 4250 4750 
L 4750 4750 
L 1831 -91 
L 1331 -91 
L 4250 4750 
z
M 1428 4750 
Q 1922 4750 2215 4408 
Q 2509 4066 2509 3481 
Q 2509 2891 2217 2550 
Q 1925 2209 1428 2209 
Q 931 2209 642 2551 
Q 353 2894 353 3481 
Q 353 4063 643 4406 
Q 934 4750 1428 4750 
z
" transform="scale(0.015625)"/>
      </defs>
      <use xlink:href="#DejaVuSans-43"/>
      <use xlink:href="#DejaVuSans-6f" x="69.824219"/>
      <use xlink:href="#DejaVuSans-6d" x="131.005859"/>
      <use xlink:href="#DejaVuSans-70" x="228.417969"/>
      <use xlink:href="#DejaVuSans-6c" x="291.894531"/>
      <use xlink:href="#DejaVuSans-65" x="319.677734"/>
      <use xlink:href="#DejaVuSans-74" x="381.201172"/>
      <use xlink:href="#DejaVuSans-65" x="420.410156"/>
      <use xlink:href="#DejaVuSans-6e" x="481.933594"/>
      <use xlink:href="#DejaVuSans-65" x="545.3125"/>
      <use xlink:href="#DejaVuSans-73" x="606.835938"/>
      <use xlink:href="#DejaVuSans-73" x="658.935547"/>
      <use xlink:href="#DejaVuSans-2c" x="711.035156"/>
      <use xlink:href="#DejaVuSans-20" x="742.822266"/>
      <use xlink:href="#DejaVuSans-25" x="774.609375"/>
     </g>
    </g>
   </g>
   <g id="matplotlib.axis_2">
    <g id="ytick_1">
     <g id="line2d_10">
      <defs>
       <path id="m1441ece287" d="M 0 0 
L -3.5 0 
" style="stroke: #000000; stroke-width: 0.8"/>
      </defs>
      <g>
       <use xlink:href="#m1441ece287" x="32.4" y="282.404435" style="stroke: #000000; stroke-width: 0.8"/>
      </g>
     </g>
     <g id="text_11">
      <!-- 0 -->
      <g transform="translate(22.21875 284.304044)scale(0.05 -0.05)">
       <use xlink:href="#DejaVuSans-30"/>
      </g>
     </g>
    </g>
    <g id="ytick_2">
     <g id="line2d_11">
      <g>
       <use xlink:href="#m1441ece287" x="32.4" y="245.250635" style="stroke: #000000; stroke-width: 0.8"/>
      </g>
     </g>
     <g id="text_12">
      <!-- 1 -->
      <g transform="translate(22.21875 247.150244)scale(0.05 -0.05)">
       <use xlink:href="#DejaVuSans-31"/>
      </g>
     </g>
    </g>
    <g id="ytick_3">
     <g id="line2d_12">
      <g>
       <use xlink:href="#m1441ece287" x="32.4" y="208.096835" style="stroke: #000000; stroke-width: 0.8"/>
      </g>
     </g>
     <g id="text_13">
      <!-- 2 -->
      <g transform="translate(22.21875 209.996445)scale(0.05 -0.05)">
       <defs>
        <path id="DejaVuSans-32" d="M 1228 531 
L 3431 531 
L 3431 0 
L 469 0 
L 469 531 
Q 828 903 1448 1529 
Q 2069 2156 2228 2338 
Q 2531 2678 2651 2914 
Q 2772 3150 2772 3378 
Q 2772 3750 2511 3984 
Q 2250 4219 1831 4219 
Q 1534 4219 1204 4116 
Q 875 4013 500 3803 
L 500 4441 
Q 881 4594 1212 4672 
Q 1544 4750 1819 4750 
Q 2544 4750 2975 4387 
Q 3406 4025 3406 3419 
Q 3406 3131 3298 2873 
Q 3191 2616 2906 2266 
Q 2828 2175 2409 1742 
Q 1991 1309 1228 531 
z
" transform="scale(0.015625)"/>
       </defs>
       <use xlink:href="#DejaVuSans-32"/>
      </g>
     </g>
    </g>
    <g id="ytick_4">
     <g id="line2d_13">
      <g>
       <use xlink:href="#m1441ece287" x="32.4" y="170.943036" style="stroke: #000000; stroke-width: 0.8"/>
      </g>
     </g>
     <g id="text_14">
      <!-- 3 -->
      <g transform="translate(22.21875 172.842645)scale(0.05 -0.05)">
       <defs>
        <path id="DejaVuSans-33" d="M 2597 2516 
Q 3050 2419 3304 2112 
Q 3559 1806 3559 1356 
Q 3559 666 3084 287 
Q 2609 -91 1734 -91 
Q 1441 -91 1130 -33 
Q 819 25 488 141 
L 488 750 
Q 750 597 1062 519 
Q 1375 441 1716 441 
Q 2309 441 2620 675 
Q 2931 909 2931 1356 
Q 2931 1769 2642 2001 
Q 2353 2234 1838 2234 
L 1294 2234 
L 1294 2753 
L 1863 2753 
Q 2328 2753 2575 2939 
Q 2822 3125 2822 3475 
Q 2822 3834 2567 4026 
Q 2313 4219 1838 4219 
Q 1578 4219 1281 4162 
Q 984 4106 628 3988 
L 628 4550 
Q 988 4650 1302 4700 
Q 1616 4750 1894 4750 
Q 2613 4750 3031 4423 
Q 3450 4097 3450 3541 
Q 3450 3153 3228 2886 
Q 3006 2619 2597 2516 
z
" transform="scale(0.015625)"/>
       </defs>
       <use xlink:href="#DejaVuSans-33"/>
      </g>
     </g>
    </g>
    <g id="ytick_5">
     <g id="line2d_14">
      <g>
       <use xlink:href="#m1441ece287" x="32.4" y="133.789236" style="stroke: #000000; stroke-width: 0.8"/>
      </g>
     </g>
     <g id="text_15">
      <!-- 4 -->
      <g transform="translate(22.21875 135.688845)scale(0.05 -0.05)">
       <defs>
        <path id="DejaVuSans-34" d="M 2419 4116 
L 825 1625 
L 2419 1625 
L 2419 4116 
z
M 2253 4666 
L 3047 4666 
L 3047 1625 
L 3713 1625 
L 3713 1100 
L 3047 1100 
L 3047 0 
L 2419 0 
L 2419 1100 
L 313 1100 
L 313 1709 
L 2253 4666 
z
" transform="scale(0.015625)"/>
       </defs>
       <use xlink:href="#DejaVuSans-34"/>
      </g>
     </g>
    </g>
    <g id="ytick_6">
     <g id="line2d_15">
      <g>
       <use xlink:href="#m1441ece287" x="32.4" y="96.635436" style="stroke: #000000; stroke-width: 0.8"/>
      </g>
     </g>
     <g id="text_16">
      <!-- 5 -->
      <g transform="translate(22.21875 98.535046)scale(0.05 -0.05)">
       <use xlink:href="#DejaVuSans-35"/>
      </g>
     </g>
    </g>
    <g id="text_17">
     <!-- Contamination, % -->
     <g transform="translate(17.178906 212.819874)rotate(-90)scale(0.05 -0.05)">
      <defs>
       <path id="DejaVuSans-61" d="M 2194 1759 
Q 1497 1759 1228 1600 
Q 959 1441 959 1056 
Q 959 750 1161 570 
Q 1363 391 1709 391 
Q 2188 391 2477 730 
Q 2766 1069 2766 1631 
L 2766 1759 
L 2194 1759 
z
M 3341 1997 
L 3341 0 
L 2766 0 
L 2766 531 
Q 2569 213 2275 61 
Q 1981 -91 1556 -91 
Q 1019 -91 701 211 
Q 384 513 384 1019 
Q 384 1609 779 1909 
Q 1175 2209 1959 2209 
L 2766 2209 
L 2766 2266 
Q 2766 2663 2505 2880 
Q 2244 3097 1772 3097 
Q 1472 3097 1187 3025 
Q 903 2953 641 2809 
L 641 3341 
Q 956 3463 1253 3523 
Q 1550 3584 1831 3584 
Q 2591 3584 2966 3190 
Q 3341 2797 3341 1997 
z
" transform="scale(0.015625)"/>
       <path id="DejaVuSans-69" d="M 603 3500 
L 1178 3500 
L 1178 0 
L 603 0 
L 603 3500 
z
M 603 4863 
L 1178 4863 
L 1178 4134 
L 603 4134 
L 603 4863 
z
" transform="scale(0.015625)"/>
      </defs>
      <use xlink:href="#DejaVuSans-43"/>
      <use xlink:href="#DejaVuSans-6f" x="69.824219"/>
      <use xlink:href="#DejaVuSans-6e" x="131.005859"/>
      <use xlink:href="#DejaVuSans-74" x="194.384766"/>
      <use xlink:href="#DejaVuSans-61" x="233.59375"/>
      <use xlink:href="#DejaVuSans-6d" x="294.873047"/>
      <use xlink:href="#DejaVuSans-69" x="392.285156"/>
      <use xlink:href="#DejaVuSans-6e" x="420.068359"/>
      <use xlink:href="#DejaVuSans-61" x="483.447266"/>
      <use xlink:href="#DejaVuSans-74" x="544.726562"/>
      <use xlink:href="#DejaVuSans-69" x="583.935547"/>
      <use xlink:href="#DejaVuSans-6f" x="611.71875"/>
      <use xlink:href="#DejaVuSans-6e" x="672.900391"/>
      <use xlink:href="#DejaVuSans-2c" x="736.279297"/>
      <use xlink:href="#DejaVuSans-20" x="768.066406"/>
      <use xlink:href="#DejaVuSans-25" x="799.853516"/>
     </g>
    </g>
   </g>
   <g id="patch_3">
    <path d="M 32.4 291.6 
L 32.4 89.297561 
" style="fill: none; stroke: #000000; stroke-width: 0.8; stroke-linejoin: miter; stroke-linecap: square"/>
   </g>
   <g id="patch_4">
    <path d="M 32.4 291.6 
L 234.702439 291.6 
" style="fill: none; stroke: #000000; stroke-width: 0.8; stroke-linejoin: miter; stroke-linecap: square"/>
   </g>
  </g>
  <g id="axes_2">
   <g id="patch_5">
    <path d="M 32.4 82.97561 
L 234.702439 82.97561 
L 234.702439 32.4 
L 32.4 32.4 
z
" style="fill: #ffffff"/>
   </g>
   <g id="patch_6">
    <path d="M 41.595565 82.97561 
L 53.856319 82.97561 
L 53.856319 80.786189 
L 41.595565 80.786189 
z
" clip-path="url(#p481fd2494d)" style="fill: #808080"/>
   </g>
   <g id="patch_7">
    <path d="M 53.856319 82.97561 
L 66.117073 82.97561 
L 66.117073 76.407349 
L 53.856319 76.407349 
z
" clip-path="url(#p481fd2494d)" style="fill: #808080"/>
   </g>
   <g id="patch_8">
    <path d="M 66.117073 82.97561 
L 78.377827 82.97561 
L 78.377827 82.97561 
L 66.117073 82.97561 
z
" clip-path="url(#p481fd2494d)" style="fill: #808080"/>
   </g>
   <g id="patch_9">
    <path d="M 78.377827 82.97561 
L 90.638581 82.97561 
L 90.638581 76.407349 
L 78.377827 76.407349 
z
" clip-path="url(#p481fd2494d)" style="fill: #808080"/>
   </g>
   <g id="patch_10">
    <path d="M 90.638581 82.97561 
L 102.899335 82.97561 
L 102.899335 76.407349 
L 90.638581 76.407349 
z
" clip-path="url(#p481fd2494d)" style="fill: #808080"/>
   </g>
   <g id="patch_11">
    <path d="M 102.899335 82.97561 
L 115.160089 82.97561 
L 115.160089 67.649667 
L 102.899335 67.649667 
z
" clip-path="url(#p481fd2494d)" style="fill: #808080"/>
   </g>
   <g id="patch_12">
    <path d="M 115.160089 82.97561 
L 127.420843 82.97561 
L 127.420843 78.596769 
L 115.160089 78.596769 
z
" clip-path="url(#p481fd2494d)" style="fill: #808080"/>
   </g>
   <g id="patch_13">
    <path d="M 127.420843 82.97561 
L 139.681596 82.97561 
L 139.681596 69.839088 
L 127.420843 69.839088 
z
" clip-path="url(#p481fd2494d)" style="fill: #808080"/>
   </g>
   <g id="patch_14">
    <path d="M 139.681596 82.97561 
L 151.94235 82.97561 
L 151.94235 67.649667 
L 139.681596 67.649667 
z
" clip-path="url(#p481fd2494d)" style="fill: #808080"/>
   </g>
   <g id="patch_15">
    <path d="M 151.94235 82.97561 
L 164.203104 82.97561 
L 164.203104 65.460247 
L 151.94235 65.460247 
z
" clip-path="url(#p481fd2494d)" style="fill: #808080"/>
   </g>
   <g id="patch_16">
    <path d="M 164.203104 82.97561 
L 176.463858 82.97561 
L 176.463858 69.839088 
L 164.203104 69.839088 
z
" clip-path="url(#p481fd2494d)" style="fill: #808080"/>
   </g>
   <g id="patch_17">
    <path d="M 176.463858 82.97561 
L 188.724612 82.97561 
L 188.724612 54.513145 
L 176.463858 54.513145 
z
" clip-path="url(#p481fd2494d)" style="fill: #808080"/>
   </g>
   <g id="patch_18">
    <path d="M 188.724612 82.97561 
L 200.985366 82.97561 
L 200.985366 47.944884 
L 188.724612 47.944884 
z
" clip-path="url(#p481fd2494d)" style="fill: #808080"/>
   </g>
   <g id="patch_19">
    <path d="M 200.985366 82.97561 
L 213.24612 82.97561 
L 213.24612 63.270827 
L 200.985366 63.270827 
z
" clip-path="url(#p481fd2494d)" style="fill: #808080"/>
   </g>
   <g id="patch_20">
    <path d="M 213.24612 82.97561 
L 225.506874 82.97561 
L 225.506874 34.808362 
L 213.24612 34.808362 
z
" clip-path="url(#p481fd2494d)" style="fill: #808080"/>
   </g>
   <g id="matplotlib.axis_3">
    <g id="xtick_10">
     <g id="line2d_16">
      <g>
       <use xlink:href="#m7bca5c7f93" x="40.810606" y="82.97561" style="stroke: #000000; stroke-width: 0.8"/>
      </g>
     </g>
    </g>
    <g id="xtick_11">
     <g id="line2d_17">
      <g>
       <use xlink:href="#m7bca5c7f93" x="63.89764" y="82.97561" style="stroke: #000000; stroke-width: 0.8"/>
      </g>
     </g>
    </g>
    <g id="xtick_12">
     <g id="line2d_18">
      <g>
       <use xlink:href="#m7bca5c7f93" x="86.984673" y="82.97561" style="stroke: #000000; stroke-width: 0.8"/>
      </g>
     </g>
    </g>
    <g id="xtick_13">
     <g id="line2d_19">
      <g>
       <use xlink:href="#m7bca5c7f93" x="110.071707" y="82.97561" style="stroke: #000000; stroke-width: 0.8"/>
      </g>
     </g>
    </g>
    <g id="xtick_14">
     <g id="line2d_20">
      <g>
       <use xlink:href="#m7bca5c7f93" x="133.15874" y="82.97561" style="stroke: #000000; stroke-width: 0.8"/>
      </g>
     </g>
    </g>
    <g id="xtick_15">
     <g id="line2d_21">
      <g>
       <use xlink:href="#m7bca5c7f93" x="156.245773" y="82.97561" style="stroke: #000000; stroke-width: 0.8"/>
      </g>
     </g>
    </g>
    <g id="xtick_16">
     <g id="line2d_22">
      <g>
       <use xlink:href="#m7bca5c7f93" x="179.332807" y="82.97561" style="stroke: #000000; stroke-width: 0.8"/>
      </g>
     </g>
    </g>
    <g id="xtick_17">
     <g id="line2d_23">
      <g>
       <use xlink:href="#m7bca5c7f93" x="202.41984" y="82.97561" style="stroke: #000000; stroke-width: 0.8"/>
      </g>
     </g>
    </g>
    <g id="xtick_18">
     <g id="line2d_24">
      <g>
       <use xlink:href="#m7bca5c7f93" x="225.506874" y="82.97561" style="stroke: #000000; stroke-width: 0.8"/>
      </g>
     </g>
    </g>
   </g>
   <g id="matplotlib.axis_4">
    <g id="ytick_7">
     <g id="line2d_25">
      <g>
       <use xlink:href="#m1441ece287" x="32.4" y="82.97561" style="stroke: #000000; stroke-width: 0.8"/>
      </g>
     </g>
     <g id="text_18">
      <!-- 0 -->
      <g transform="translate(22.21875 84.875219)scale(0.05 -0.05)">
       <use xlink:href="#DejaVuSans-30"/>
      </g>
     </g>
    </g>
    <g id="ytick_8">
     <g id="line2d_26">
      <g>
       <use xlink:href="#m1441ece287" x="32.4" y="72.028508" style="stroke: #000000; stroke-width: 0.8"/>
      </g>
     </g>
     <g id="text_19">
      <!-- 5 -->
      <g transform="translate(22.21875 73.928117)scale(0.05 -0.05)">
       <use xlink:href="#DejaVuSans-35"/>
      </g>
     </g>
    </g>
    <g id="ytick_9">
     <g id="line2d_27">
      <g>
       <use xlink:href="#m1441ece287" x="32.4" y="61.081406" style="stroke: #000000; stroke-width: 0.8"/>
      </g>
     </g>
     <g id="text_20">
      <!-- 10 -->
      <g transform="translate(19.0375 62.981016)scale(0.05 -0.05)">
       <use xlink:href="#DejaVuSans-31"/>
       <use xlink:href="#DejaVuSans-30" x="63.623047"/>
      </g>
     </g>
    </g>
    <g id="ytick_10">
     <g id="line2d_28">
      <g>
       <use xlink:href="#m1441ece287" x="32.4" y="50.134305" style="stroke: #000000; stroke-width: 0.8"/>
      </g>
     </g>
     <g id="text_21">
      <!-- 15 -->
      <g transform="translate(19.0375 52.033914)scale(0.05 -0.05)">
       <use xlink:href="#DejaVuSans-31"/>
       <use xlink:href="#DejaVuSans-35" x="63.623047"/>
      </g>
     </g>
    </g>
    <g id="ytick_11">
     <g id="line2d_29">
      <g>
       <use xlink:href="#m1441ece287" x="32.4" y="39.187203" style="stroke: #000000; stroke-width: 0.8"/>
      </g>
     </g>
     <g id="text_22">
      <!-- 20 -->
      <g transform="translate(19.0375 41.086812)scale(0.05 -0.05)">
       <use xlink:href="#DejaVuSans-32"/>
       <use xlink:href="#DejaVuSans-30" x="63.623047"/>
      </g>
     </g>
    </g>
   </g>
   <g id="line2d_30">
    <path d="M 184.181084 82.97561 
L 184.181084 32.4 
" clip-path="url(#p481fd2494d)" style="fill: none; stroke-dasharray: 5.55,2.4; stroke-dashoffset: 0; stroke: #ff0000; stroke-opacity: 0.6; stroke-width: 1.5"/>
   </g>
   <g id="line2d_31">
    <path d="M 187.367094 82.97561 
L 187.367094 32.4 
" clip-path="url(#p481fd2494d)" style="fill: none; stroke-dasharray: 5.55,2.4; stroke-dashoffset: 0; stroke: #ff0000; stroke-opacity: 0.6; stroke-width: 1.5"/>
   </g>
   <g id="line2d_32">
    <path d="M 163.772146 82.97561 
L 163.772146 32.4 
" clip-path="url(#p481fd2494d)" style="fill: none; stroke-dasharray: 5.55,2.4; stroke-dashoffset: 0; stroke: #ff0000; stroke-opacity: 0.6; stroke-width: 1.5"/>
   </g>
   <g id="line2d_33">
    <path d="M 145.579564 82.97561 
L 145.579564 32.4 
" clip-path="url(#p481fd2494d)" style="fill: none; stroke-dasharray: 5.55,2.4; stroke-dashoffset: 0; stroke: #ff0000; stroke-opacity: 0.6; stroke-width: 1.5"/>
   </g>
   <g id="line2d_34">
    <path d="M 160.401439 82.97561 
L 160.401439 32.4 
" clip-path="url(#p481fd2494d)" style="fill: none; stroke-dasharray: 5.55,2.4; stroke-dashoffset: 0; stroke: #ff0000; stroke-opacity: 0.6; stroke-width: 1.5"/>
   </g>
   <g id="line2d_35">
    <path d="M 172.406697 82.97561 
L 172.406697 32.4 
" clip-path="url(#p481fd2494d)" style="fill: none; stroke-dasharray: 5.55,2.4; stroke-dashoffset: 0; stroke: #ff0000; stroke-opacity: 0.6; stroke-width: 1.5"/>
   </g>
   <g id="line2d_36">
    <path d="M 54.293434 82.97561 
L 54.293434 32.4 
" clip-path="url(#p481fd2494d)" style="fill: none; stroke-dasharray: 5.55,2.4; stroke-dashoffset: 0; stroke: #ff0000; stroke-opacity: 0.6; stroke-width: 1.5"/>
   </g>
   <g id="patch_21">
    <path d="M 32.4 82.97561 
L 32.4 32.4 
" style="fill: none; stroke: #000000; stroke-width: 0.8; stroke-linejoin: miter; stroke-linecap: square"/>
   </g>
   <g id="patch_22">
    <path d="M 32.4 82.97561 
L 234.702439 82.97561 
" style="fill: none; stroke: #000000; stroke-width: 0.8; stroke-linejoin: miter; stroke-linecap: square"/>
   </g>
  </g>
  <g id="axes_3">
   <g id="patch_23">
    <path d="M 241.02439 291.6 
L 291.6 291.6 
L 291.6 89.297561 
L 241.02439 89.297561 
z
" style="fill: #ffffff"/>
   </g>
   <g id="patch_24">
    <path d="M 241.02439 282.404435 
L 289.191638 282.404435 
L 289.191638 270.143681 
L 241.02439 270.143681 
z
" clip-path="url(#pda8e2da9bb)" style="fill: #808080"/>
   </g>
   <g id="patch_25">
    <path d="M 241.02439 270.143681 
L 261.966672 270.143681 
L 261.966672 257.882927 
L 241.02439 257.882927 
z
" clip-path="url(#pda8e2da9bb)" style="fill: #808080"/>
   </g>
   <g id="patch_26">
    <path d="M 241.02439 257.882927 
L 257.778215 257.882927 
L 257.778215 245.622173 
L 241.02439 245.622173 
z
" clip-path="url(#pda8e2da9bb)" style="fill: #808080"/>
   </g>
   <g id="patch_27">
    <path d="M 241.02439 245.622173 
L 266.155128 245.622173 
L 266.155128 233.361419 
L 241.02439 233.361419 
z
" clip-path="url(#pda8e2da9bb)" style="fill: #808080"/>
   </g>
   <g id="patch_28">
    <path d="M 241.02439 233.361419 
L 259.872444 233.361419 
L 259.872444 221.100665 
L 241.02439 221.100665 
z
" clip-path="url(#pda8e2da9bb)" style="fill: #808080"/>
   </g>
   <g id="patch_29">
    <path d="M 241.02439 221.100665 
L 251.495531 221.100665 
L 251.495531 208.839911 
L 241.02439 208.839911 
z
" clip-path="url(#pda8e2da9bb)" style="fill: #808080"/>
   </g>
   <g id="patch_30">
    <path d="M 241.02439 208.839911 
L 251.495531 208.839911 
L 251.495531 196.579157 
L 241.02439 196.579157 
z
" clip-path="url(#pda8e2da9bb)" style="fill: #808080"/>
   </g>
   <g id="patch_31">
    <path d="M 241.02439 196.579157 
L 251.495531 196.579157 
L 251.495531 184.318404 
L 241.02439 184.318404 
z
" clip-path="url(#pda8e2da9bb)" style="fill: #808080"/>
   </g>
   <g id="patch_32">
    <path d="M 241.02439 184.318404 
L 255.683987 184.318404 
L 255.683987 172.05765 
L 241.02439 172.05765 
z
" clip-path="url(#pda8e2da9bb)" style="fill: #808080"/>
   </g>
   <g id="patch_33">
    <path d="M 241.02439 172.05765 
L 253.589759 172.05765 
L 253.589759 159.796896 
L 241.02439 159.796896 
z
" clip-path="url(#pda8e2da9bb)" style="fill: #808080"/>
   </g>
   <g id="patch_34">
    <path d="M 241.02439 159.796896 
L 251.495531 159.796896 
L 251.495531 147.536142 
L 241.02439 147.536142 
z
" clip-path="url(#pda8e2da9bb)" style="fill: #808080"/>
   </g>
   <g id="patch_35">
    <path d="M 241.02439 147.536142 
L 247.307075 147.536142 
L 247.307075 135.275388 
L 241.02439 135.275388 
z
" clip-path="url(#pda8e2da9bb)" style="fill: #808080"/>
   </g>
   <g id="patch_36">
    <path d="M 241.02439 135.275388 
L 241.02439 135.275388 
L 241.02439 123.014634 
L 241.02439 123.014634 
z
" clip-path="url(#pda8e2da9bb)" style="fill: #808080"/>
   </g>
   <g id="patch_37">
    <path d="M 241.02439 123.014634 
L 247.307075 123.014634 
L 247.307075 110.75388 
L 241.02439 110.75388 
z
" clip-path="url(#pda8e2da9bb)" style="fill: #808080"/>
   </g>
   <g id="patch_38">
    <path d="M 241.02439 110.75388 
L 251.495531 110.75388 
L 251.495531 98.493126 
L 241.02439 98.493126 
z
" clip-path="url(#pda8e2da9bb)" style="fill: #808080"/>
   </g>
   <g id="matplotlib.axis_5">
    <g id="xtick_19">
     <g id="line2d_37">
      <g>
       <use xlink:href="#m7bca5c7f93" x="241.02439" y="291.6" style="stroke: #000000; stroke-width: 0.8"/>
      </g>
     </g>
     <g id="text_23">
      <!-- 0 -->
      <g transform="translate(239.433765 302.399219)scale(0.05 -0.05)">
       <use xlink:href="#DejaVuSans-30"/>
      </g>
     </g>
    </g>
    <g id="xtick_20">
     <g id="line2d_38">
      <g>
       <use xlink:href="#m7bca5c7f93" x="261.966672" y="291.6" style="stroke: #000000; stroke-width: 0.8"/>
      </g>
     </g>
     <g id="text_24">
      <!-- 10 -->
      <g transform="translate(258.785422 302.399219)scale(0.05 -0.05)">
       <use xlink:href="#DejaVuSans-31"/>
       <use xlink:href="#DejaVuSans-30" x="63.623047"/>
      </g>
     </g>
    </g>
    <g id="xtick_21">
     <g id="line2d_39">
      <g>
       <use xlink:href="#m7bca5c7f93" x="282.908953" y="291.6" style="stroke: #000000; stroke-width: 0.8"/>
      </g>
     </g>
     <g id="text_25">
      <!-- 20 -->
      <g transform="translate(279.727703 302.399219)scale(0.05 -0.05)">
       <use xlink:href="#DejaVuSans-32"/>
       <use xlink:href="#DejaVuSans-30" x="63.623047"/>
      </g>
     </g>
    </g>
   </g>
   <g id="matplotlib.axis_6">
    <g id="ytick_12">
     <g id="line2d_40">
      <g>
       <use xlink:href="#m1441ece287" x="241.02439" y="282.404435" style="stroke: #000000; stroke-width: 0.8"/>
      </g>
     </g>
    </g>
    <g id="ytick_13">
     <g id="line2d_41">
      <g>
       <use xlink:href="#m1441ece287" x="241.02439" y="245.250635" style="stroke: #000000; stroke-width: 0.8"/>
      </g>
     </g>
    </g>
    <g id="ytick_14">
     <g id="line2d_42">
      <g>
       <use xlink:href="#m1441ece287" x="241.02439" y="208.096835" style="stroke: #000000; stroke-width: 0.8"/>
      </g>
     </g>
    </g>
    <g id="ytick_15">
     <g id="line2d_43">
      <g>
       <use xlink:href="#m1441ece287" x="241.02439" y="170.943036" style="stroke: #000000; stroke-width: 0.8"/>
      </g>
     </g>
    </g>
    <g id="ytick_16">
     <g id="line2d_44">
      <g>
       <use xlink:href="#m1441ece287" x="241.02439" y="133.789236" style="stroke: #000000; stroke-width: 0.8"/>
      </g>
     </g>
    </g>
    <g id="ytick_17">
     <g id="line2d_45">
      <g>
       <use xlink:href="#m1441ece287" x="241.02439" y="96.635436" style="stroke: #000000; stroke-width: 0.8"/>
      </g>
     </g>
    </g>
   </g>
   <g id="line2d_46">
    <path d="M 241.02439 257.882927 
L 291.6 257.882927 
" clip-path="url(#pda8e2da9bb)" style="fill: none; stroke-dasharray: 5.55,2.4; stroke-dashoffset: 0; stroke: #ff0000; stroke-opacity: 0.6; stroke-width: 1.5"/>
   </g>
   <g id="line2d_47">
    <path d="M 241.02439 109.267728 
L 291.6 109.267728 
" clip-path="url(#pda8e2da9bb)" style="fill: none; stroke-dasharray: 5.55,2.4; stroke-dashoffset: 0; stroke: #ff0000; stroke-opacity: 0.6; stroke-width: 1.5"/>
   </g>
   <g id="line2d_48">
    <path d="M 241.02439 167.599194 
L 291.6 167.599194 
" clip-path="url(#pda8e2da9bb)" style="fill: none; stroke-dasharray: 5.55,2.4; stroke-dashoffset: 0; stroke: #ff0000; stroke-opacity: 0.6; stroke-width: 1.5"/>
   </g>
   <g id="line2d_49">
    <path d="M 241.02439 282.404435 
L 291.6 282.404435 
" clip-path="url(#pda8e2da9bb)" style="fill: none; stroke-dasharray: 5.55,2.4; stroke-dashoffset: 0; stroke: #ff0000; stroke-opacity: 0.6; stroke-width: 1.5"/>
   </g>
   <g id="line2d_50">
    <path d="M 241.02439 254.167547 
L 291.6 254.167547 
" clip-path="url(#pda8e2da9bb)" style="fill: none; stroke-dasharray: 5.55,2.4; stroke-dashoffset: 0; stroke: #ff0000; stroke-opacity: 0.6; stroke-width: 1.5"/>
   </g>
   <g id="line2d_51">
    <path d="M 241.02439 272.744447 
L 291.6 272.744447 
" clip-path="url(#pda8e2da9bb)" style="fill: none; stroke-dasharray: 5.55,2.4; stroke-dashoffset: 0; stroke: #ff0000; stroke-opacity: 0.6; stroke-width: 1.5"/>
   </g>
   <g id="line2d_52">
    <path d="M 241.02439 282.032897 
L 291.6 282.032897 
" clip-path="url(#pda8e2da9bb)" style="fill: none; stroke-dasharray: 5.55,2.4; stroke-dashoffset: 0; stroke: #ff0000; stroke-opacity: 0.6; stroke-width: 1.5"/>
   </g>
   <g id="patch_39">
    <path d="M 241.02439 291.6 
L 241.02439 89.297561 
" style="fill: none; stroke: #000000; stroke-width: 0.8; stroke-linejoin: miter; stroke-linecap: square"/>
   </g>
   <g id="patch_40">
    <path d="M 241.02439 291.6 
L 291.6 291.6 
" style="fill: none; stroke: #000000; stroke-width: 0.8; stroke-linejoin: miter; stroke-linecap: square"/>
   </g>
  </g>
 </g>
 <defs>
  <clipPath id="pf179d88ff5">
   <rect x="32.4" y="89.297561" width="202.302439" height="202.302439"/>
  </clipPath>
  <clipPath id="p481fd2494d">
   <rect x="32.4" y="32.4" width="202.302439" height="50.57561"/>
  </clipPath>
  <clipPath id="pda8e2da9bb">
   <rect x="241.02439" y="89.297561" width="50.57561" height="202.302439"/>
  </clipPath>
 </defs>
</svg>
