<?xml version="1.0" encoding="utf-8" standalone="no"?>
<!DOCTYPE svg PUBLIC "-//W3C//DTD SVG 1.1//EN"
  "http://www.w3.org/Graphics/SVG/1.1/DTD/svg11.dtd">
<svg xmlns:xlink="http://www.w3.org/1999/xlink" width="288pt" height="144pt" viewBox="0 0 288 144" xmlns="http://www.w3.org/2000/svg" version="1.1">
 <metadata>
  <rdf:RDF xmlns:dc="http://purl.org/dc/elements/1.1/" xmlns:cc="http://creativecommons.org/ns#" xmlns:rdf="http://www.w3.org/1999/02/22-rdf-syntax-ns#">
   <cc:Work>
    <dc:type rdf:resource="http://purl.org/dc/dcmitype/StillImage"/>
    <dc:date>2025-07-28T22:12:41.806661</dc:date>
    <dc:format>image/svg+xml</dc:format>
    <dc:creator>
     <cc:Agent>
      <dc:title>Matplotlib v3.5.1, https://matplotlib.org/</dc:title>
     </cc:Agent>
    </dc:creator>
   </cc:Work>
  </rdf:RDF>
 </metadata>
 <defs>
  <style type="text/css">*{stroke-linejoin: round; stroke-linecap: butt}</style>
 </defs>
 <g id="figure_1">
  <g id="patch_1">
   <path d="M 0 144 
L 288 144 
L 288 0 
L 0 0 
z
" style="fill: #ffffff"/>
  </g>
  <g id="axes_1">
   <g id="patch_2">
    <path d="M 34.28 111.28 
L 282.6 111.28 
L 282.6 5.4 
L 34.28 5.4 
z
" style="fill: #ffffff"/>
   </g>
   <g id="matplotlib.axis_1">
    <g id="xtick_1">
     <g id="line2d_1">
      <defs>
       <path id="mc4c08852f0" d="M 0 0 
L 0 3.5 
" style="stroke: #000000; stroke-width: 0.8"/>
      </defs>
      <g>
       <use xlink:href="#mc4c08852f0" x="45.567273" y="111.28" style="stroke: #000000; stroke-width: 0.8"/>
      </g>
     </g>
     <g id="text_1">
      <!-- 0.0 -->
      <g transform="translate(41.591491 122.079219)scale(0.05 -0.05)">
       <defs>
        <path id="DejaVuSans-30" d="M 2034 4250 
Q 1547 4250 1301 3770 
Q 1056 3291 1056 2328 
Q 1056 1369 1301 889 
Q 1547 409 2034 409 
Q 2525 409 2770 889 
Q 3016 1369 3016 2328 
Q 3016 3291 2770 3770 
Q 2525 4250 2034 4250 
z
M 2034 4750 
Q 2819 4750 3233 4129 
Q 3647 3509 3647 2328 
Q 3647 1150 3233 529 
Q 2819 -91 2034 -91 
Q 1250 -91 836 529 
Q 422 1150 422 2328 
Q 422 3509 836 4129 
Q 1250 4750 2034 4750 
z
" transform="scale(0.015625)"/>
        <path id="DejaVuSans-2e" d="M 684 794 
L 1344 794 
L 1344 0 
L 684 0 
L 684 794 
z
" transform="scale(0.015625)"/>
       </defs>
       <use xlink:href="#DejaVuSans-30"/>
       <use xlink:href="#DejaVuSans-2e" x="63.623047"/>
       <use xlink:href="#DejaVuSans-30" x="95.410156"/>
      </g>
     </g>
    </g>
    <g id="xtick_2">
     <g id="line2d_2">
      <g>
       <use xlink:href="#mc4c08852f0" x="73.785455" y="111.28" style="stroke: #000000; stroke-width: 0.8"/>
      </g>
     </g>
     <g id="text_2">
      <!-- 2.5 -->
      <g transform="translate(69.809673 122.079219)scale(0.05 -0.05)">
       <defs>
        <path id="DejaVuSans-32" d="M 1228 531 
L 3431 531 
L 3431 0 
L 469 0 
L 469 531 
Q 828 903 1448 1529 
Q 2069 2156 2228 2338 
Q 2531 2678 2651 2914 
Q 2772 3150 2772 3378 
Q 2772 3750 2511 3984 
Q 2250 4219 1831 4219 
Q 1534 4219 1204 4116 
Q 875 4013 500 3803 
L 500 4441 
Q 881 4594 1212 4672 
Q 1544 4750 1819 4750 
Q 2544 4750 2975 4387 
Q 3406 4025 3406 3419 
Q 3406 3131 3298 2873 
Q 3191 2616 2906 2266 
Q 2828 2175 2409 1742 
Q 1991 1309 1228 531 
z
" transform="scale(0.015625)"/>
        <path id="DejaVuSans-35" d="M 691 4666 
L 3169 4666 
L 3169 4134 
L 1269 4134 
L 1269 2991 
Q 1406 3038 1543 3061 
Q 1681 3084 1819 3084 
Q 2600 3084 3056 2656 
Q 3513 2228 3513 1497 
Q 3513 744 3044 326 
Q 2575 -91 1722 -91 
Q 1428 -91 1123 -41 
Q 819 9 494 109 
L 494 744 
Q 775 591 1075 516 
Q 1375 441 1709 441 
Q 2250 441 2565 725 
Q 2881 1009 2881 1497 
Q 2881 1984 2565 2268 
Q 2250 2553 1709 2553 
Q 1456 2553 1204 2497 
Q 953 2441 691 2322 
L 691 4666 
z
" transform="scale(0.015625)"/>
       </defs>
       <use xlink:href="#DejaVuSans-32"/>
       <use xlink:href="#DejaVuSans-2e" x="63.623047"/>
       <use xlink:href="#DejaVuSans-35" x="95.410156"/>
      </g>
     </g>
    </g>
    <g id="xtick_3">
     <g id="line2d_3">
      <g>
       <use xlink:href="#mc4c08852f0" x="102.003636" y="111.28" style="stroke: #000000; stroke-width: 0.8"/>
      </g>
     </g>
     <g id="text_3">
      <!-- 5.0 -->
      <g transform="translate(98.027855 122.079219)scale(0.05 -0.05)">
       <use xlink:href="#DejaVuSans-35"/>
       <use xlink:href="#DejaVuSans-2e" x="63.623047"/>
       <use xlink:href="#DejaVuSans-30" x="95.410156"/>
      </g>
     </g>
    </g>
    <g id="xtick_4">
     <g id="line2d_4">
      <g>
       <use xlink:href="#mc4c08852f0" x="130.221818" y="111.28" style="stroke: #000000; stroke-width: 0.8"/>
      </g>
     </g>
     <g id="text_4">
      <!-- 7.5 -->
      <g transform="translate(126.246037 122.079219)scale(0.05 -0.05)">
       <defs>
        <path id="DejaVuSans-37" d="M 525 4666 
L 3525 4666 
L 3525 4397 
L 1831 0 
L 1172 0 
L 2766 4134 
L 525 4134 
L 525 4666 
z
" transform="scale(0.015625)"/>
       </defs>
       <use xlink:href="#DejaVuSans-37"/>
       <use xlink:href="#DejaVuSans-2e" x="63.623047"/>
       <use xlink:href="#DejaVuSans-35" x="95.410156"/>
      </g>
     </g>
    </g>
    <g id="xtick_5">
     <g id="line2d_5">
      <g>
       <use xlink:href="#mc4c08852f0" x="158.44" y="111.28" style="stroke: #000000; stroke-width: 0.8"/>
      </g>
     </g>
     <g id="text_5">
      <!-- 10.0 -->
      <g transform="translate(152.873594 122.079219)scale(0.05 -0.05)">
       <defs>
        <path id="DejaVuSans-31" d="M 794 531 
L 1825 531 
L 1825 4091 
L 703 3866 
L 703 4441 
L 1819 4666 
L 2450 4666 
L 2450 531 
L 3481 531 
L 3481 0 
L 794 0 
L 794 531 
z
" transform="scale(0.015625)"/>
       </defs>
       <use xlink:href="#DejaVuSans-31"/>
       <use xlink:href="#DejaVuSans-30" x="63.623047"/>
       <use xlink:href="#DejaVuSans-2e" x="127.246094"/>
       <use xlink:href="#DejaVuSans-30" x="159.033203"/>
      </g>
     </g>
    </g>
    <g id="xtick_6">
     <g id="line2d_6">
      <g>
       <use xlink:href="#mc4c08852f0" x="186.658182" y="111.28" style="stroke: #000000; stroke-width: 0.8"/>
      </g>
     </g>
     <g id="text_6">
      <!-- 12.5 -->
      <g transform="translate(181.091776 122.079219)scale(0.05 -0.05)">
       <use xlink:href="#DejaVuSans-31"/>
       <use xlink:href="#DejaVuSans-32" x="63.623047"/>
       <use xlink:href="#DejaVuSans-2e" x="127.246094"/>
       <use xlink:href="#DejaVuSans-35" x="159.033203"/>
      </g>
     </g>
    </g>
    <g id="xtick_7">
     <g id="line2d_7">
      <g>
       <use xlink:href="#mc4c08852f0" x="214.876364" y="111.28" style="stroke: #000000; stroke-width: 0.8"/>
      </g>
     </g>
     <g id="text_7">
      <!-- 15.0 -->
      <g transform="translate(209.309957 122.079219)scale(0.05 -0.05)">
       <use xlink:href="#DejaVuSans-31"/>
       <use xlink:href="#DejaVuSans-35" x="63.623047"/>
       <use xlink:href="#DejaVuSans-2e" x="127.246094"/>
       <use xlink:href="#DejaVuSans-30" x="159.033203"/>
      </g>
     </g>
    </g>
    <g id="xtick_8">
     <g id="line2d_8">
      <g>
       <use xlink:href="#mc4c08852f0" x="243.094545" y="111.28" style="stroke: #000000; stroke-width: 0.8"/>
      </g>
     </g>
     <g id="text_8">
      <!-- 17.5 -->
      <g transform="translate(237.528139 122.079219)scale(0.05 -0.05)">
       <use xlink:href="#DejaVuSans-31"/>
       <use xlink:href="#DejaVuSans-37" x="63.623047"/>
       <use xlink:href="#DejaVuSans-2e" x="127.246094"/>
       <use xlink:href="#DejaVuSans-35" x="159.033203"/>
      </g>
     </g>
    </g>
    <g id="xtick_9">
     <g id="line2d_9">
      <g>
       <use xlink:href="#mc4c08852f0" x="271.312727" y="111.28" style="stroke: #000000; stroke-width: 0.8"/>
      </g>
     </g>
     <g id="text_9">
      <!-- 20.0 -->
      <g transform="translate(265.746321 122.079219)scale(0.05 -0.05)">
       <use xlink:href="#DejaVuSans-32"/>
       <use xlink:href="#DejaVuSans-30" x="63.623047"/>
       <use xlink:href="#DejaVuSans-2e" x="127.246094"/>
       <use xlink:href="#DejaVuSans-30" x="159.033203"/>
      </g>
     </g>
    </g>
    <g id="text_10">
     <!-- Number of ELPs (Sel1) -->
     <g transform="translate(91.392813 136.237188)scale(0.12 -0.12)">
      <defs>
       <path id="DejaVuSans-4e" d="M 628 4666 
L 1478 4666 
L 3547 763 
L 3547 4666 
L 4159 4666 
L 4159 0 
L 3309 0 
L 1241 3903 
L 1241 0 
L 628 0 
L 628 4666 
z
" transform="scale(0.015625)"/>
       <path id="DejaVuSans-75" d="M 544 1381 
L 544 3500 
L 1119 3500 
L 1119 1403 
Q 1119 906 1312 657 
Q 1506 409 1894 409 
Q 2359 409 2629 706 
Q 2900 1003 2900 1516 
L 2900 3500 
L 3475 3500 
L 3475 0 
L 2900 0 
L 2900 538 
Q 2691 219 2414 64 
Q 2138 -91 1772 -91 
Q 1169 -91 856 284 
Q 544 659 544 1381 
z
M 1991 3584 
L 1991 3584 
z
" transform="scale(0.015625)"/>
       <path id="DejaVuSans-6d" d="M 3328 2828 
Q 3544 3216 3844 3400 
Q 4144 3584 4550 3584 
Q 5097 3584 5394 3201 
Q 5691 2819 5691 2113 
L 5691 0 
L 5113 0 
L 5113 2094 
Q 5113 2597 4934 2840 
Q 4756 3084 4391 3084 
Q 3944 3084 3684 2787 
Q 3425 2491 3425 1978 
L 3425 0 
L 2847 0 
L 2847 2094 
Q 2847 2600 2669 2842 
Q 2491 3084 2119 3084 
Q 1678 3084 1418 2786 
Q 1159 2488 1159 1978 
L 1159 0 
L 581 0 
L 581 3500 
L 1159 3500 
L 1159 2956 
Q 1356 3278 1631 3431 
Q 1906 3584 2284 3584 
Q 2666 3584 2933 3390 
Q 3200 3197 3328 2828 
z
" transform="scale(0.015625)"/>
       <path id="DejaVuSans-62" d="M 3116 1747 
Q 3116 2381 2855 2742 
Q 2594 3103 2138 3103 
Q 1681 3103 1420 2742 
Q 1159 2381 1159 1747 
Q 1159 1113 1420 752 
Q 1681 391 2138 391 
Q 2594 391 2855 752 
Q 3116 1113 3116 1747 
z
M 1159 2969 
Q 1341 3281 1617 3432 
Q 1894 3584 2278 3584 
Q 2916 3584 3314 3078 
Q 3713 2572 3713 1747 
Q 3713 922 3314 415 
Q 2916 -91 2278 -91 
Q 1894 -91 1617 61 
Q 1341 213 1159 525 
L 1159 0 
L 581 0 
L 581 4863 
L 1159 4863 
L 1159 2969 
z
" transform="scale(0.015625)"/>
       <path id="DejaVuSans-65" d="M 3597 1894 
L 3597 1613 
L 953 1613 
Q 991 1019 1311 708 
Q 1631 397 2203 397 
Q 2534 397 2845 478 
Q 3156 559 3463 722 
L 3463 178 
Q 3153 47 2828 -22 
Q 2503 -91 2169 -91 
Q 1331 -91 842 396 
Q 353 884 353 1716 
Q 353 2575 817 3079 
Q 1281 3584 2069 3584 
Q 2775 3584 3186 3129 
Q 3597 2675 3597 1894 
z
M 3022 2063 
Q 3016 2534 2758 2815 
Q 2500 3097 2075 3097 
Q 1594 3097 1305 2825 
Q 1016 2553 972 2059 
L 3022 2063 
z
" transform="scale(0.015625)"/>
       <path id="DejaVuSans-72" d="M 2631 2963 
Q 2534 3019 2420 3045 
Q 2306 3072 2169 3072 
Q 1681 3072 1420 2755 
Q 1159 2438 1159 1844 
L 1159 0 
L 581 0 
L 581 3500 
L 1159 3500 
L 1159 2956 
Q 1341 3275 1631 3429 
Q 1922 3584 2338 3584 
Q 2397 3584 2469 3576 
Q 2541 3569 2628 3553 
L 2631 2963 
z
" transform="scale(0.015625)"/>
       <path id="DejaVuSans-20" transform="scale(0.015625)"/>
       <path id="DejaVuSans-6f" d="M 1959 3097 
Q 1497 3097 1228 2736 
Q 959 2375 959 1747 
Q 959 1119 1226 758 
Q 1494 397 1959 397 
Q 2419 397 2687 759 
Q 2956 1122 2956 1747 
Q 2956 2369 2687 2733 
Q 2419 3097 1959 3097 
z
M 1959 3584 
Q 2709 3584 3137 3096 
Q 3566 2609 3566 1747 
Q 3566 888 3137 398 
Q 2709 -91 1959 -91 
Q 1206 -91 779 398 
Q 353 888 353 1747 
Q 353 2609 779 3096 
Q 1206 3584 1959 3584 
z
" transform="scale(0.015625)"/>
       <path id="DejaVuSans-66" d="M 2375 4863 
L 2375 4384 
L 1825 4384 
Q 1516 4384 1395 4259 
Q 1275 4134 1275 3809 
L 1275 3500 
L 2222 3500 
L 2222 3053 
L 1275 3053 
L 1275 0 
L 697 0 
L 697 3053 
L 147 3053 
L 147 3500 
L 697 3500 
L 697 3744 
Q 697 4328 969 4595 
Q 1241 4863 1831 4863 
L 2375 4863 
z
" transform="scale(0.015625)"/>
       <path id="DejaVuSans-45" d="M 628 4666 
L 3578 4666 
L 3578 4134 
L 1259 4134 
L 1259 2753 
L 3481 2753 
L 3481 2222 
L 1259 2222 
L 1259 531 
L 3634 531 
L 3634 0 
L 628 0 
L 628 4666 
z
" transform="scale(0.015625)"/>
       <path id="DejaVuSans-4c" d="M 628 4666 
L 1259 4666 
L 1259 531 
L 3531 531 
L 3531 0 
L 628 0 
L 628 4666 
z
" transform="scale(0.015625)"/>
       <path id="DejaVuSans-50" d="M 1259 4147 
L 1259 2394 
L 2053 2394 
Q 2494 2394 2734 2622 
Q 2975 2850 2975 3272 
Q 2975 3691 2734 3919 
Q 2494 4147 2053 4147 
L 1259 4147 
z
M 628 4666 
L 2053 4666 
Q 2838 4666 3239 4311 
Q 3641 3956 3641 3272 
Q 3641 2581 3239 2228 
Q 2838 1875 2053 1875 
L 1259 1875 
L 1259 0 
L 628 0 
L 628 4666 
z
" transform="scale(0.015625)"/>
       <path id="DejaVuSans-73" d="M 2834 3397 
L 2834 2853 
Q 2591 2978 2328 3040 
Q 2066 3103 1784 3103 
Q 1356 3103 1142 2972 
Q 928 2841 928 2578 
Q 928 2378 1081 2264 
Q 1234 2150 1697 2047 
L 1894 2003 
Q 2506 1872 2764 1633 
Q 3022 1394 3022 966 
Q 3022 478 2636 193 
Q 2250 -91 1575 -91 
Q 1294 -91 989 -36 
Q 684 19 347 128 
L 347 722 
Q 666 556 975 473 
Q 1284 391 1588 391 
Q 1994 391 2212 530 
Q 2431 669 2431 922 
Q 2431 1156 2273 1281 
Q 2116 1406 1581 1522 
L 1381 1569 
Q 847 1681 609 1914 
Q 372 2147 372 2553 
Q 372 3047 722 3315 
Q 1072 3584 1716 3584 
Q 2034 3584 2315 3537 
Q 2597 3491 2834 3397 
z
" transform="scale(0.015625)"/>
       <path id="DejaVuSans-28" d="M 1984 4856 
Q 1566 4138 1362 3434 
Q 1159 2731 1159 2009 
Q 1159 1288 1364 580 
Q 1569 -128 1984 -844 
L 1484 -844 
Q 1016 -109 783 600 
Q 550 1309 550 2009 
Q 550 2706 781 3412 
Q 1013 4119 1484 4856 
L 1984 4856 
z
" transform="scale(0.015625)"/>
       <path id="DejaVuSans-53" d="M 3425 4513 
L 3425 3897 
Q 3066 4069 2747 4153 
Q 2428 4238 2131 4238 
Q 1616 4238 1336 4038 
Q 1056 3838 1056 3469 
Q 1056 3159 1242 3001 
Q 1428 2844 1947 2747 
L 2328 2669 
Q 3034 2534 3370 2195 
Q 3706 1856 3706 1288 
Q 3706 609 3251 259 
Q 2797 -91 1919 -91 
Q 1588 -91 1214 -16 
Q 841 59 441 206 
L 441 856 
Q 825 641 1194 531 
Q 1563 422 1919 422 
Q 2459 422 2753 634 
Q 3047 847 3047 1241 
Q 3047 1584 2836 1778 
Q 2625 1972 2144 2069 
L 1759 2144 
Q 1053 2284 737 2584 
Q 422 2884 422 3419 
Q 422 4038 858 4394 
Q 1294 4750 2059 4750 
Q 2388 4750 2728 4690 
Q 3069 4631 3425 4513 
z
" transform="scale(0.015625)"/>
       <path id="DejaVuSans-6c" d="M 603 4863 
L 1178 4863 
L 1178 0 
L 603 0 
L 603 4863 
z
" transform="scale(0.015625)"/>
       <path id="DejaVuSans-29" d="M 513 4856 
L 1013 4856 
Q 1481 4119 1714 3412 
Q 1947 2706 1947 2009 
Q 1947 1309 1714 600 
Q 1481 -109 1013 -844 
L 513 -844 
Q 928 -128 1133 580 
Q 1338 1288 1338 2009 
Q 1338 2731 1133 3434 
Q 928 4138 513 4856 
z
" transform="scale(0.015625)"/>
      </defs>
      <use xlink:href="#DejaVuSans-4e"/>
      <use xlink:href="#DejaVuSans-75" x="74.804688"/>
      <use xlink:href="#DejaVuSans-6d" x="138.183594"/>
      <use xlink:href="#DejaVuSans-62" x="235.595703"/>
      <use xlink:href="#DejaVuSans-65" x="299.072266"/>
      <use xlink:href="#DejaVuSans-72" x="360.595703"/>
      <use xlink:href="#DejaVuSans-20" x="401.708984"/>
      <use xlink:href="#DejaVuSans-6f" x="433.496094"/>
      <use xlink:href="#DejaVuSans-66" x="494.677734"/>
      <use xlink:href="#DejaVuSans-20" x="529.882812"/>
      <use xlink:href="#DejaVuSans-45" x="561.669922"/>
      <use xlink:href="#DejaVuSans-4c" x="624.853516"/>
      <use xlink:href="#DejaVuSans-50" x="680.566406"/>
      <use xlink:href="#DejaVuSans-73" x="739.119141"/>
      <use xlink:href="#DejaVuSans-20" x="791.21875"/>
      <use xlink:href="#DejaVuSans-28" x="823.005859"/>
      <use xlink:href="#DejaVuSans-53" x="862.019531"/>
      <use xlink:href="#DejaVuSans-65" x="925.496094"/>
      <use xlink:href="#DejaVuSans-6c" x="987.019531"/>
      <use xlink:href="#DejaVuSans-31" x="1014.802734"/>
      <use xlink:href="#DejaVuSans-29" x="1078.425781"/>
     </g>
    </g>
   </g>
   <g id="matplotlib.axis_2">
    <g id="ytick_1">
     <g id="line2d_10">
      <defs>
       <path id="m8653edaeb0" d="M 0 0 
L -3.5 0 
" style="stroke: #000000; stroke-width: 0.8"/>
      </defs>
      <g>
       <use xlink:href="#m8653edaeb0" x="34.28" y="111.28" style="stroke: #000000; stroke-width: 0.8"/>
      </g>
     </g>
     <g id="text_11">
      <!-- 0 -->
      <g transform="translate(24.09875 113.179609)scale(0.05 -0.05)">
       <use xlink:href="#DejaVuSans-30"/>
      </g>
     </g>
    </g>
    <g id="ytick_2">
     <g id="line2d_11">
      <g>
       <use xlink:href="#m8653edaeb0" x="34.28" y="92.606279" style="stroke: #000000; stroke-width: 0.8"/>
      </g>
     </g>
     <g id="text_12">
      <!-- 5 -->
      <g transform="translate(24.09875 94.505888)scale(0.05 -0.05)">
       <use xlink:href="#DejaVuSans-35"/>
      </g>
     </g>
    </g>
    <g id="ytick_3">
     <g id="line2d_12">
      <g>
       <use xlink:href="#m8653edaeb0" x="34.28" y="73.932557" style="stroke: #000000; stroke-width: 0.8"/>
      </g>
     </g>
     <g id="text_13">
      <!-- 10 -->
      <g transform="translate(20.9175 75.832167)scale(0.05 -0.05)">
       <use xlink:href="#DejaVuSans-31"/>
       <use xlink:href="#DejaVuSans-30" x="63.623047"/>
      </g>
     </g>
    </g>
    <g id="ytick_4">
     <g id="line2d_13">
      <g>
       <use xlink:href="#m8653edaeb0" x="34.28" y="55.258836" style="stroke: #000000; stroke-width: 0.8"/>
      </g>
     </g>
     <g id="text_14">
      <!-- 15 -->
      <g transform="translate(20.9175 57.158445)scale(0.05 -0.05)">
       <use xlink:href="#DejaVuSans-31"/>
       <use xlink:href="#DejaVuSans-35" x="63.623047"/>
      </g>
     </g>
    </g>
    <g id="ytick_5">
     <g id="line2d_14">
      <g>
       <use xlink:href="#m8653edaeb0" x="34.28" y="36.585115" style="stroke: #000000; stroke-width: 0.8"/>
      </g>
     </g>
     <g id="text_15">
      <!-- 20 -->
      <g transform="translate(20.9175 38.484724)scale(0.05 -0.05)">
       <use xlink:href="#DejaVuSans-32"/>
       <use xlink:href="#DejaVuSans-30" x="63.623047"/>
      </g>
     </g>
    </g>
    <g id="ytick_6">
     <g id="line2d_15">
      <g>
       <use xlink:href="#m8653edaeb0" x="34.28" y="17.911393" style="stroke: #000000; stroke-width: 0.8"/>
      </g>
     </g>
     <g id="text_16">
      <!-- 25 -->
      <g transform="translate(20.9175 19.811003)scale(0.05 -0.05)">
       <use xlink:href="#DejaVuSans-32"/>
       <use xlink:href="#DejaVuSans-35" x="63.623047"/>
      </g>
     </g>
    </g>
    <g id="text_17">
     <!-- Number of MAGs -->
     <g transform="translate(14.421875 108.99125)rotate(-90)scale(0.12 -0.12)">
      <defs>
       <path id="DejaVuSans-4d" d="M 628 4666 
L 1569 4666 
L 2759 1491 
L 3956 4666 
L 4897 4666 
L 4897 0 
L 4281 0 
L 4281 4097 
L 3078 897 
L 2444 897 
L 1241 4097 
L 1241 0 
L 628 0 
L 628 4666 
z
" transform="scale(0.015625)"/>
       <path id="DejaVuSans-41" d="M 2188 4044 
L 1331 1722 
L 3047 1722 
L 2188 4044 
z
M 1831 4666 
L 2547 4666 
L 4325 0 
L 3669 0 
L 3244 1197 
L 1141 1197 
L 716 0 
L 50 0 
L 1831 4666 
z
" transform="scale(0.015625)"/>
       <path id="DejaVuSans-47" d="M 3809 666 
L 3809 1919 
L 2778 1919 
L 2778 2438 
L 4434 2438 
L 4434 434 
Q 4069 175 3628 42 
Q 3188 -91 2688 -91 
Q 1594 -91 976 548 
Q 359 1188 359 2328 
Q 359 3472 976 4111 
Q 1594 4750 2688 4750 
Q 3144 4750 3555 4637 
Q 3966 4525 4313 4306 
L 4313 3634 
Q 3963 3931 3569 4081 
Q 3175 4231 2741 4231 
Q 1884 4231 1454 3753 
Q 1025 3275 1025 2328 
Q 1025 1384 1454 906 
Q 1884 428 2741 428 
Q 3075 428 3337 486 
Q 3600 544 3809 666 
z
" transform="scale(0.015625)"/>
      </defs>
      <use xlink:href="#DejaVuSans-4e"/>
      <use xlink:href="#DejaVuSans-75" x="74.804688"/>
      <use xlink:href="#DejaVuSans-6d" x="138.183594"/>
      <use xlink:href="#DejaVuSans-62" x="235.595703"/>
      <use xlink:href="#DejaVuSans-65" x="299.072266"/>
      <use xlink:href="#DejaVuSans-72" x="360.595703"/>
      <use xlink:href="#DejaVuSans-20" x="401.708984"/>
      <use xlink:href="#DejaVuSans-6f" x="433.496094"/>
      <use xlink:href="#DejaVuSans-66" x="494.677734"/>
      <use xlink:href="#DejaVuSans-20" x="529.882812"/>
      <use xlink:href="#DejaVuSans-4d" x="561.669922"/>
      <use xlink:href="#DejaVuSans-41" x="647.949219"/>
      <use xlink:href="#DejaVuSans-47" x="714.607422"/>
      <use xlink:href="#DejaVuSans-73" x="792.097656"/>
     </g>
    </g>
   </g>
   <g id="patch_3">
    <path d="M 45.567273 111.28 
L 45.567273 25.380882 
L 53.092121 25.380882 
L 53.092121 10.441905 
L 60.61697 10.441905 
L 60.61697 111.28 
L 68.141818 111.28 
L 68.141818 36.585115 
L 75.666667 36.585115 
L 75.666667 81.402046 
L 83.191515 81.402046 
L 83.191515 111.28 
L 90.716364 111.28 
L 90.716364 92.606279 
L 98.241212 92.606279 
L 98.241212 88.871534 
L 105.766061 88.871534 
L 105.766061 111.28 
L 113.290909 111.28 
L 113.290909 81.402046 
L 120.815758 81.402046 
L 120.815758 100.075767 
L 128.340606 100.075767 
L 128.340606 111.28 
L 135.865455 111.28 
L 135.865455 103.810511 
L 143.390303 103.810511 
L 143.390303 103.810511 
L 150.915152 103.810511 
L 150.915152 111.28 
L 158.44 111.28 
L 158.44 111.28 
L 165.964848 111.28 
L 165.964848 111.28 
L 173.489697 111.28 
L 173.489697 111.28 
L 181.014545 111.28 
L 181.014545 111.28 
L 188.539394 111.28 
L 188.539394 111.28 
L 196.064242 111.28 
L 196.064242 111.28 
L 203.589091 111.28 
L 203.589091 103.810511 
L 211.113939 103.810511 
L 211.113939 111.28 
L 218.638788 111.28 
L 218.638788 111.28 
L 226.163636 111.28 
L 226.163636 111.28 
L 233.688485 111.28 
L 233.688485 107.545256 
L 241.213333 107.545256 
L 241.213333 111.28 
L 248.738182 111.28 
L 248.738182 111.28 
L 256.26303 111.28 
L 256.26303 111.28 
L 263.787879 111.28 
L 263.787879 107.545256 
L 271.312727 107.545256 
L 271.312727 111.28 
" clip-path="url(#p7baff7a6ad)" style="fill: none; opacity: 0.9; stroke: #84c2ff; stroke-width: 3; stroke-linejoin: miter"/>
   </g>
   <g id="line2d_16">
    <path d="M 135.865455 111.28 
L 135.865455 5.4 
" clip-path="url(#p7baff7a6ad)" style="fill: none; stroke-dasharray: 5.55,2.4; stroke-dashoffset: 0; stroke: #000000; stroke-opacity: 0.6; stroke-width: 1.5"/>
   </g>
   <g id="line2d_17">
    <path d="M 45.567273 111.28 
L 45.567273 5.4 
" clip-path="url(#p7baff7a6ad)" style="fill: none; stroke-dasharray: 5.55,2.4; stroke-dashoffset: 0; stroke: #000000; stroke-opacity: 0.6; stroke-width: 1.5"/>
   </g>
   <g id="line2d_18">
    <path d="M 45.567273 111.28 
L 45.567273 5.4 
" clip-path="url(#p7baff7a6ad)" style="fill: none; stroke-dasharray: 5.55,2.4; stroke-dashoffset: 0; stroke: #000000; stroke-opacity: 0.6; stroke-width: 1.5"/>
   </g>
   <g id="line2d_19">
    <path d="M 45.567273 111.28 
L 45.567273 5.4 
" clip-path="url(#p7baff7a6ad)" style="fill: none; stroke-dasharray: 5.55,2.4; stroke-dashoffset: 0; stroke: #000000; stroke-opacity: 0.6; stroke-width: 1.5"/>
   </g>
   <g id="line2d_20">
    <path d="M 56.854545 111.28 
L 56.854545 5.4 
" clip-path="url(#p7baff7a6ad)" style="fill: none; stroke-dasharray: 5.55,2.4; stroke-dashoffset: 0; stroke: #000000; stroke-opacity: 0.6; stroke-width: 1.5"/>
   </g>
   <g id="line2d_21">
    <path d="M 56.854545 111.28 
L 56.854545 5.4 
" clip-path="url(#p7baff7a6ad)" style="fill: none; stroke-dasharray: 5.55,2.4; stroke-dashoffset: 0; stroke: #000000; stroke-opacity: 0.6; stroke-width: 1.5"/>
   </g>
   <g id="line2d_22">
    <path d="M 68.141818 111.28 
L 68.141818 5.4 
" clip-path="url(#p7baff7a6ad)" style="fill: none; stroke-dasharray: 5.55,2.4; stroke-dashoffset: 0; stroke: #000000; stroke-opacity: 0.6; stroke-width: 1.5"/>
   </g>
   <g id="line2d_23">
    <path d="M 56.854545 111.28 
L 56.854545 5.4 
" clip-path="url(#p7baff7a6ad)" style="fill: none; stroke-dasharray: 5.55,2.4; stroke-dashoffset: 0; stroke: #000000; stroke-opacity: 0.6; stroke-width: 1.5"/>
   </g>
   <g id="line2d_24">
    <path d="M 79.429091 111.28 
L 79.429091 5.4 
" clip-path="url(#p7baff7a6ad)" style="fill: none; stroke-dasharray: 5.55,2.4; stroke-dashoffset: 0; stroke: #000000; stroke-opacity: 0.6; stroke-width: 1.5"/>
   </g>
   <g id="line2d_25">
    <path d="M 45.567273 111.28 
L 45.567273 5.4 
" clip-path="url(#p7baff7a6ad)" style="fill: none; stroke-dasharray: 5.55,2.4; stroke-dashoffset: 0; stroke: #000000; stroke-opacity: 0.6; stroke-width: 1.5"/>
   </g>
   <g id="line2d_26">
    <path d="M 237.450909 111.28 
L 237.450909 5.4 
" clip-path="url(#p7baff7a6ad)" style="fill: none; stroke-dasharray: 5.55,2.4; stroke-dashoffset: 0; stroke: #000000; stroke-opacity: 0.6; stroke-width: 1.5"/>
   </g>
   <g id="line2d_27">
    <path d="M 147.152727 111.28 
L 147.152727 5.4 
" clip-path="url(#p7baff7a6ad)" style="fill: none; stroke-dasharray: 5.55,2.4; stroke-dashoffset: 0; stroke: #000000; stroke-opacity: 0.6; stroke-width: 1.5"/>
   </g>
   <g id="line2d_28">
    <path d="M 68.141818 111.28 
L 68.141818 5.4 
" clip-path="url(#p7baff7a6ad)" style="fill: none; stroke-dasharray: 5.55,2.4; stroke-dashoffset: 0; stroke: #000000; stroke-opacity: 0.6; stroke-width: 1.5"/>
   </g>
   <g id="line2d_29">
    <path d="M 45.567273 111.28 
L 45.567273 5.4 
" clip-path="url(#p7baff7a6ad)" style="fill: none; stroke-dasharray: 5.55,2.4; stroke-dashoffset: 0; stroke: #000000; stroke-opacity: 0.6; stroke-width: 1.5"/>
   </g>
   <g id="line2d_30">
    <path d="M 56.854545 111.28 
L 56.854545 5.4 
" clip-path="url(#p7baff7a6ad)" style="fill: none; stroke-dasharray: 5.55,2.4; stroke-dashoffset: 0; stroke: #000000; stroke-opacity: 0.6; stroke-width: 1.5"/>
   </g>
   <g id="line2d_31">
    <path d="M 56.854545 111.28 
L 56.854545 5.4 
" clip-path="url(#p7baff7a6ad)" style="fill: none; stroke-dasharray: 5.55,2.4; stroke-dashoffset: 0; stroke: #000000; stroke-opacity: 0.6; stroke-width: 1.5"/>
   </g>
   <g id="line2d_32">
    <path d="M 79.429091 111.28 
L 79.429091 5.4 
" clip-path="url(#p7baff7a6ad)" style="fill: none; stroke-dasharray: 5.55,2.4; stroke-dashoffset: 0; stroke: #000000; stroke-opacity: 0.6; stroke-width: 1.5"/>
   </g>
   <g id="line2d_33">
    <path d="M 90.716364 111.28 
L 90.716364 5.4 
" clip-path="url(#p7baff7a6ad)" style="fill: none; stroke-dasharray: 5.55,2.4; stroke-dashoffset: 0; stroke: #000000; stroke-opacity: 0.6; stroke-width: 1.5"/>
   </g>
   <g id="line2d_34">
    <path d="M 56.854545 111.28 
L 56.854545 5.4 
" clip-path="url(#p7baff7a6ad)" style="fill: none; stroke-dasharray: 5.55,2.4; stroke-dashoffset: 0; stroke: #000000; stroke-opacity: 0.6; stroke-width: 1.5"/>
   </g>
   <g id="line2d_35">
    <path d="M 102.003636 111.28 
L 102.003636 5.4 
" clip-path="url(#p7baff7a6ad)" style="fill: none; stroke-dasharray: 5.55,2.4; stroke-dashoffset: 0; stroke: #000000; stroke-opacity: 0.6; stroke-width: 1.5"/>
   </g>
   <g id="line2d_36">
    <path d="M 113.290909 111.28 
L 113.290909 5.4 
" clip-path="url(#p7baff7a6ad)" style="fill: none; stroke-dasharray: 5.55,2.4; stroke-dashoffset: 0; stroke: #000000; stroke-opacity: 0.6; stroke-width: 1.5"/>
   </g>
   <g id="line2d_37">
    <path d="M 56.854545 111.28 
L 56.854545 5.4 
" clip-path="url(#p7baff7a6ad)" style="fill: none; stroke-dasharray: 5.55,2.4; stroke-dashoffset: 0; stroke: #000000; stroke-opacity: 0.6; stroke-width: 1.5"/>
   </g>
   <g id="line2d_38">
    <path d="M 45.567273 111.28 
L 45.567273 5.4 
" clip-path="url(#p7baff7a6ad)" style="fill: none; stroke-dasharray: 5.55,2.4; stroke-dashoffset: 0; stroke: #000000; stroke-opacity: 0.6; stroke-width: 1.5"/>
   </g>
   <g id="line2d_39">
    <path d="M 68.141818 111.28 
L 68.141818 5.4 
" clip-path="url(#p7baff7a6ad)" style="fill: none; stroke-dasharray: 5.55,2.4; stroke-dashoffset: 0; stroke: #000000; stroke-opacity: 0.6; stroke-width: 1.5"/>
   </g>
   <g id="line2d_40">
    <path d="M 56.854545 111.28 
L 56.854545 5.4 
" clip-path="url(#p7baff7a6ad)" style="fill: none; stroke-dasharray: 5.55,2.4; stroke-dashoffset: 0; stroke: #000000; stroke-opacity: 0.6; stroke-width: 1.5"/>
   </g>
   <g id="line2d_41">
    <path d="M 56.854545 111.28 
L 56.854545 5.4 
" clip-path="url(#p7baff7a6ad)" style="fill: none; stroke-dasharray: 5.55,2.4; stroke-dashoffset: 0; stroke: #000000; stroke-opacity: 0.6; stroke-width: 1.5"/>
   </g>
   <g id="line2d_42">
    <path d="M 113.290909 111.28 
L 113.290909 5.4 
" clip-path="url(#p7baff7a6ad)" style="fill: none; stroke-dasharray: 5.55,2.4; stroke-dashoffset: 0; stroke: #000000; stroke-opacity: 0.6; stroke-width: 1.5"/>
   </g>
   <g id="line2d_43">
    <path d="M 102.003636 111.28 
L 102.003636 5.4 
" clip-path="url(#p7baff7a6ad)" style="fill: none; stroke-dasharray: 5.55,2.4; stroke-dashoffset: 0; stroke: #000000; stroke-opacity: 0.6; stroke-width: 1.5"/>
   </g>
   <g id="line2d_44">
    <path d="M 56.854545 111.28 
L 56.854545 5.4 
" clip-path="url(#p7baff7a6ad)" style="fill: none; stroke-dasharray: 5.55,2.4; stroke-dashoffset: 0; stroke: #000000; stroke-opacity: 0.6; stroke-width: 1.5"/>
   </g>
   <g id="line2d_45">
    <path d="M 68.141818 111.28 
L 68.141818 5.4 
" clip-path="url(#p7baff7a6ad)" style="fill: none; stroke-dasharray: 5.55,2.4; stroke-dashoffset: 0; stroke: #000000; stroke-opacity: 0.6; stroke-width: 1.5"/>
   </g>
   <g id="line2d_46">
    <path d="M 45.567273 111.28 
L 45.567273 5.4 
" clip-path="url(#p7baff7a6ad)" style="fill: none; stroke-dasharray: 5.55,2.4; stroke-dashoffset: 0; stroke: #000000; stroke-opacity: 0.6; stroke-width: 1.5"/>
   </g>
   <g id="line2d_47">
    <path d="M 124.578182 111.28 
L 124.578182 5.4 
" clip-path="url(#p7baff7a6ad)" style="fill: none; stroke-dasharray: 5.55,2.4; stroke-dashoffset: 0; stroke: #000000; stroke-opacity: 0.6; stroke-width: 1.5"/>
   </g>
   <g id="line2d_48">
    <path d="M 113.290909 111.28 
L 113.290909 5.4 
" clip-path="url(#p7baff7a6ad)" style="fill: none; stroke-dasharray: 5.55,2.4; stroke-dashoffset: 0; stroke: #000000; stroke-opacity: 0.6; stroke-width: 1.5"/>
   </g>
   <g id="line2d_49">
    <path d="M 102.003636 111.28 
L 102.003636 5.4 
" clip-path="url(#p7baff7a6ad)" style="fill: none; stroke-dasharray: 5.55,2.4; stroke-dashoffset: 0; stroke: #000000; stroke-opacity: 0.6; stroke-width: 1.5"/>
   </g>
   <g id="line2d_50">
    <path d="M 147.152727 111.28 
L 147.152727 5.4 
" clip-path="url(#p7baff7a6ad)" style="fill: none; stroke-dasharray: 5.55,2.4; stroke-dashoffset: 0; stroke: #000000; stroke-opacity: 0.6; stroke-width: 1.5"/>
   </g>
   <g id="line2d_51">
    <path d="M 79.429091 111.28 
L 79.429091 5.4 
" clip-path="url(#p7baff7a6ad)" style="fill: none; stroke-dasharray: 5.55,2.4; stroke-dashoffset: 0; stroke: #000000; stroke-opacity: 0.6; stroke-width: 1.5"/>
   </g>
   <g id="line2d_52">
    <path d="M 56.854545 111.28 
L 56.854545 5.4 
" clip-path="url(#p7baff7a6ad)" style="fill: none; stroke-dasharray: 5.55,2.4; stroke-dashoffset: 0; stroke: #000000; stroke-opacity: 0.6; stroke-width: 1.5"/>
   </g>
   <g id="line2d_53">
    <path d="M 113.290909 111.28 
L 113.290909 5.4 
" clip-path="url(#p7baff7a6ad)" style="fill: none; stroke-dasharray: 5.55,2.4; stroke-dashoffset: 0; stroke: #000000; stroke-opacity: 0.6; stroke-width: 1.5"/>
   </g>
   <g id="line2d_54">
    <path d="M 135.865455 111.28 
L 135.865455 5.4 
" clip-path="url(#p7baff7a6ad)" style="fill: none; stroke-dasharray: 5.55,2.4; stroke-dashoffset: 0; stroke: #000000; stroke-opacity: 0.6; stroke-width: 1.5"/>
   </g>
   <g id="line2d_55">
    <path d="M 124.578182 111.28 
L 124.578182 5.4 
" clip-path="url(#p7baff7a6ad)" style="fill: none; stroke-dasharray: 5.55,2.4; stroke-dashoffset: 0; stroke: #000000; stroke-opacity: 0.6; stroke-width: 1.5"/>
   </g>
   <g id="line2d_56">
    <path d="M 113.290909 111.28 
L 113.290909 5.4 
" clip-path="url(#p7baff7a6ad)" style="fill: none; stroke-dasharray: 5.55,2.4; stroke-dashoffset: 0; stroke: #000000; stroke-opacity: 0.6; stroke-width: 1.5"/>
   </g>
   <g id="line2d_57">
    <path d="M 56.854545 111.28 
L 56.854545 5.4 
" clip-path="url(#p7baff7a6ad)" style="fill: none; stroke-dasharray: 5.55,2.4; stroke-dashoffset: 0; stroke: #000000; stroke-opacity: 0.6; stroke-width: 1.5"/>
   </g>
   <g id="line2d_58">
    <path d="M 90.716364 111.28 
L 90.716364 5.4 
" clip-path="url(#p7baff7a6ad)" style="fill: none; stroke-dasharray: 5.55,2.4; stroke-dashoffset: 0; stroke: #000000; stroke-opacity: 0.6; stroke-width: 1.5"/>
   </g>
   <g id="line2d_59">
    <path d="M 56.854545 111.28 
L 56.854545 5.4 
" clip-path="url(#p7baff7a6ad)" style="fill: none; stroke-dasharray: 5.55,2.4; stroke-dashoffset: 0; stroke: #000000; stroke-opacity: 0.6; stroke-width: 1.5"/>
   </g>
   <g id="line2d_60">
    <path d="M 56.854545 111.28 
L 56.854545 5.4 
" clip-path="url(#p7baff7a6ad)" style="fill: none; stroke-dasharray: 5.55,2.4; stroke-dashoffset: 0; stroke: #000000; stroke-opacity: 0.6; stroke-width: 1.5"/>
   </g>
   <g id="line2d_61">
    <path d="M 56.854545 111.28 
L 56.854545 5.4 
" clip-path="url(#p7baff7a6ad)" style="fill: none; stroke-dasharray: 5.55,2.4; stroke-dashoffset: 0; stroke: #000000; stroke-opacity: 0.6; stroke-width: 1.5"/>
   </g>
   <g id="line2d_62">
    <path d="M 68.141818 111.28 
L 68.141818 5.4 
" clip-path="url(#p7baff7a6ad)" style="fill: none; stroke-dasharray: 5.55,2.4; stroke-dashoffset: 0; stroke: #000000; stroke-opacity: 0.6; stroke-width: 1.5"/>
   </g>
   <g id="line2d_63">
    <path d="M 68.141818 111.28 
L 68.141818 5.4 
" clip-path="url(#p7baff7a6ad)" style="fill: none; stroke-dasharray: 5.55,2.4; stroke-dashoffset: 0; stroke: #000000; stroke-opacity: 0.6; stroke-width: 1.5"/>
   </g>
   <g id="line2d_64">
    <path d="M 56.854545 111.28 
L 56.854545 5.4 
" clip-path="url(#p7baff7a6ad)" style="fill: none; stroke-dasharray: 5.55,2.4; stroke-dashoffset: 0; stroke: #000000; stroke-opacity: 0.6; stroke-width: 1.5"/>
   </g>
   <g id="line2d_65">
    <path d="M 68.141818 111.28 
L 68.141818 5.4 
" clip-path="url(#p7baff7a6ad)" style="fill: none; stroke-dasharray: 5.55,2.4; stroke-dashoffset: 0; stroke: #000000; stroke-opacity: 0.6; stroke-width: 1.5"/>
   </g>
   <g id="line2d_66">
    <path d="M 68.141818 111.28 
L 68.141818 5.4 
" clip-path="url(#p7baff7a6ad)" style="fill: none; stroke-dasharray: 5.55,2.4; stroke-dashoffset: 0; stroke: #000000; stroke-opacity: 0.6; stroke-width: 1.5"/>
   </g>
   <g id="line2d_67">
    <path d="M 45.567273 111.28 
L 45.567273 5.4 
" clip-path="url(#p7baff7a6ad)" style="fill: none; stroke-dasharray: 5.55,2.4; stroke-dashoffset: 0; stroke: #000000; stroke-opacity: 0.6; stroke-width: 1.5"/>
   </g>
   <g id="line2d_68">
    <path d="M 45.567273 111.28 
L 45.567273 5.4 
" clip-path="url(#p7baff7a6ad)" style="fill: none; stroke-dasharray: 5.55,2.4; stroke-dashoffset: 0; stroke: #000000; stroke-opacity: 0.6; stroke-width: 1.5"/>
   </g>
   <g id="line2d_69">
    <path d="M 56.854545 111.28 
L 56.854545 5.4 
" clip-path="url(#p7baff7a6ad)" style="fill: none; stroke-dasharray: 5.55,2.4; stroke-dashoffset: 0; stroke: #000000; stroke-opacity: 0.6; stroke-width: 1.5"/>
   </g>
   <g id="line2d_70">
    <path d="M 45.567273 111.28 
L 45.567273 5.4 
" clip-path="url(#p7baff7a6ad)" style="fill: none; stroke-dasharray: 5.55,2.4; stroke-dashoffset: 0; stroke: #000000; stroke-opacity: 0.6; stroke-width: 1.5"/>
   </g>
   <g id="line2d_71">
    <path d="M 271.312727 111.28 
L 271.312727 5.4 
" clip-path="url(#p7baff7a6ad)" style="fill: none; stroke-dasharray: 5.55,2.4; stroke-dashoffset: 0; stroke: #000000; stroke-opacity: 0.6; stroke-width: 1.5"/>
   </g>
   <g id="line2d_72">
    <path d="M 45.567273 111.28 
L 45.567273 5.4 
" clip-path="url(#p7baff7a6ad)" style="fill: none; stroke-dasharray: 5.55,2.4; stroke-dashoffset: 0; stroke: #000000; stroke-opacity: 0.6; stroke-width: 1.5"/>
   </g>
   <g id="line2d_73">
    <path d="M 68.141818 111.28 
L 68.141818 5.4 
" clip-path="url(#p7baff7a6ad)" style="fill: none; stroke-dasharray: 5.55,2.4; stroke-dashoffset: 0; stroke: #000000; stroke-opacity: 0.6; stroke-width: 1.5"/>
   </g>
   <g id="line2d_74">
    <path d="M 203.589091 111.28 
L 203.589091 5.4 
" clip-path="url(#p7baff7a6ad)" style="fill: none; stroke-dasharray: 5.55,2.4; stroke-dashoffset: 0; stroke: #000000; stroke-opacity: 0.6; stroke-width: 1.5"/>
   </g>
   <g id="line2d_75">
    <path d="M 56.854545 111.28 
L 56.854545 5.4 
" clip-path="url(#p7baff7a6ad)" style="fill: none; stroke-dasharray: 5.55,2.4; stroke-dashoffset: 0; stroke: #000000; stroke-opacity: 0.6; stroke-width: 1.5"/>
   </g>
   <g id="line2d_76">
    <path d="M 203.589091 111.28 
L 203.589091 5.4 
" clip-path="url(#p7baff7a6ad)" style="fill: none; stroke-dasharray: 5.55,2.4; stroke-dashoffset: 0; stroke: #000000; stroke-opacity: 0.6; stroke-width: 1.5"/>
   </g>
   <g id="line2d_77">
    <path d="M 56.854545 111.28 
L 56.854545 5.4 
" clip-path="url(#p7baff7a6ad)" style="fill: none; stroke-dasharray: 5.55,2.4; stroke-dashoffset: 0; stroke: #000000; stroke-opacity: 0.6; stroke-width: 1.5"/>
   </g>
   <g id="line2d_78">
    <path d="M 68.141818 111.28 
L 68.141818 5.4 
" clip-path="url(#p7baff7a6ad)" style="fill: none; stroke-dasharray: 5.55,2.4; stroke-dashoffset: 0; stroke: #000000; stroke-opacity: 0.6; stroke-width: 1.5"/>
   </g>
   <g id="line2d_79">
    <path d="M 68.141818 111.28 
L 68.141818 5.4 
" clip-path="url(#p7baff7a6ad)" style="fill: none; stroke-dasharray: 5.55,2.4; stroke-dashoffset: 0; stroke: #000000; stroke-opacity: 0.6; stroke-width: 1.5"/>
   </g>
   <g id="patch_4">
    <path d="M 34.28 111.28 
L 34.28 5.4 
" style="fill: none; stroke: #000000; stroke-width: 0.8; stroke-linejoin: miter; stroke-linecap: square"/>
   </g>
   <g id="patch_5">
    <path d="M 34.28 111.28 
L 282.6 111.28 
" style="fill: none; stroke: #000000; stroke-width: 0.8; stroke-linejoin: miter; stroke-linecap: square"/>
   </g>
  </g>
 </g>
 <defs>
  <clipPath id="p7baff7a6ad">
   <rect x="34.28" y="5.4" width="248.32" height="105.88"/>
  </clipPath>
 </defs>
</svg>
